<svg xmlns="http://www.w3.org/2000/svg" width="18.019" height="18.019" viewBox="0 0 18.019 18.019"><defs><style>.a{fill:#256952;}</style></defs><circle class="a" cx="0.704" cy="0.704" r="0.704" transform="translate(3.731 6.687)"/><path class="a" d="M2.816,1.408h.915V.7A.7.7,0,0,1,5.138.7v.7h3.2V.7A.7.7,0,0,1,9.749.7v.7h3.167V.7a.7.7,0,0,1,1.408,0v.7h.88a2.819,2.819,0,0,1,2.816,2.816V15.2A2.819,2.819,0,0,1,15.2,18.019H9.819a.7.7,0,1,1,0-1.408H15.2A1.409,1.409,0,0,0,16.612,15.2V4.223A1.409,1.409,0,0,0,15.2,2.816h-.88v.7a.7.7,0,1,1-1.408,0v-.7H9.749v.7a.7.7,0,1,1-1.408,0v-.7h-3.2v.7a.7.7,0,0,1-1.408,0v-.7H2.816A1.409,1.409,0,0,0,1.408,4.223V8.235A.7.7,0,0,1,0,8.235V4.223A2.819,2.819,0,0,1,2.816,1.408Z"/><path class="a" d="M274.259,270A4.258,4.258,0,1,1,270,274.259,4.263,4.263,0,0,1,274.259,270Zm0,7.109a2.851,2.851,0,1,0-2.851-2.851A2.854,2.854,0,0,0,274.259,277.109Z" transform="translate(-270 -260.498)"/><path class="a" d="M371.7,331.443h.317V330.7a.7.7,0,1,1,1.408,0v1.443a.7.7,0,0,1-.7.7H371.7a.7.7,0,0,1,0-1.408Z" transform="translate(-368.466 -318.386)"/><circle class="a" cx="0.704" cy="0.704" r="0.704" transform="translate(6.792 6.687)"/><circle class="a" cx="0.704" cy="0.704" r="0.704" transform="translate(9.854 9.749)"/><circle class="a" cx="0.704" cy="0.704" r="0.704" transform="translate(12.916 6.687)"/><circle class="a" cx="0.704" cy="0.704" r="0.704" transform="translate(12.916 9.749)"/><circle class="a" cx="0.704" cy="0.704" r="0.704" transform="translate(12.916 12.811)"/><circle class="a" cx="0.704" cy="0.704" r="0.704" transform="translate(9.854 12.811)"/><circle class="a" cx="0.704" cy="0.704" r="0.704" transform="translate(9.854 6.687)"/></svg>