<svg xmlns="http://www.w3.org/2000/svg" width="24" height="24" viewBox="0 0 27.754 27.77">
    <path class="fill-none" d="M.648,7.734,12.82,13.256a1.338,1.338,0,0,0,1.112,0L26.1,7.734a1.168,1.168,0,0,0,0-2.092L13.933.121a1.338,1.338,0,0,0-1.112,0L.648,5.642a1.168,1.168,0,0,0,0,2.092Zm25.457,4.613L23.07,10.972,14.624,14.8a3.012,3.012,0,0,1-2.494,0L3.684,10.972.648,12.347a1.166,1.166,0,0,0,0,2.09L12.82,19.955a1.342,1.342,0,0,0,1.112,0l12.173-5.517a1.166,1.166,0,0,0,0-2.09Zm0,6.678-3.024-1.371-8.458,3.834a3.012,3.012,0,0,1-2.494,0L3.673,17.655.648,19.025a1.166,1.166,0,0,0,0,2.09L12.82,26.633a1.342,1.342,0,0,0,1.112,0l12.173-5.517A1.166,1.166,0,0,0,26.105,19.025Z" transform="translate(0.5 0.509)"></path>
</svg>