<svg xmlns="http://www.w3.org/2000/svg" xmlns:xlink="http://www.w3.org/1999/xlink" width="1392" height="460.307" viewBox="0 0 1392 460.307"><defs><style>.a{stroke:#e8e8e8;stroke-linejoin:round;fill:url(#a);}.b{stroke:none;}.c{fill:none;}</style><linearGradient id="a" x1="0.5" x2="0.5" y2="1" gradientUnits="objectBoundingBox"><stop offset="0" stop-opacity="0"/><stop offset="0.594" stop-opacity="0"/><stop offset="1" stop-opacity="0.639"/></linearGradient></defs><g class="a"><path class="b" d="M10,0H1382a10,10,0,0,1,10,10V460.307a0,0,0,0,1,0,0H0a0,0,0,0,1,0,0V10A10,10,0,0,1,10,0Z"/><path class="c" d="M10,.5H1382a9.5,9.5,0,0,1,9.5,9.5V459.307a.5.5,0,0,1-.5.5H1a.5.5,0,0,1-.5-.5V10A9.5,9.5,0,0,1,10,.5Z"/></g></svg>