<svg xmlns="http://www.w3.org/2000/svg" width="22.5" height="31.499" viewBox="0 0 22.5 31.499"><defs><style>.a{fill:#125541;}</style></defs><path class="a" d="M20.25,13.5A2.25,2.25,0,1,1,18,11.25,2.25,2.25,0,0,1,20.25,13.5Z" transform="translate(-6.75 -2.25)"/><path class="a" d="M18,2.25A11.026,11.026,0,0,0,6.75,13.008c0,2.824,1.287,6.581,3.826,11.164A82.511,82.511,0,0,0,16.2,32.836a2.232,2.232,0,0,0,3.6,0,82.838,82.838,0,0,0,5.625-8.664c2.536-4.582,3.823-8.338,3.823-11.164A11.026,11.026,0,0,0,18,2.25ZM18,18a4.5,4.5,0,1,1,4.5-4.5A4.5,4.5,0,0,1,18,18Z" transform="translate(-6.75 -2.25)"/></svg>