<svg xmlns="http://www.w3.org/2000/svg" width="41.425" height="35.212" viewBox="0 0 41.425 35.212"><g transform="translate(-4 -23.722)"><g transform="translate(4 23.722)"><path d="M4.69,80a.69.69,0,0,0-.69.69v6.9H5.381V81.381h6.214V80Z" transform="translate(-4 -80)"/></g><g transform="translate(37.831 51.339)"><path d="M402.214,400v6.214H396v1.381h6.9a.69.69,0,0,0,.69-.69V400Z" transform="translate(-396 -400)"/></g><g transform="translate(4 51.339)"><path d="M5.381,406.214V400H4v6.9a.69.69,0,0,0,.69.69h6.9v-1.381Z" transform="translate(-4 -400)"/></g><g transform="translate(7.452 27.174)"><path d="M75.069,125.523H68.7l-.989-3.955A2.068,2.068,0,0,0,65.705,120h-8.89a2.069,2.069,0,0,0-2.01,1.569l-.989,3.955H47.452A3.456,3.456,0,0,0,44,128.975v15.189a3.456,3.456,0,0,0,3.452,3.452H75.069a3.456,3.456,0,0,0,3.452-3.452V128.975A3.456,3.456,0,0,0,75.069,125.523Zm2.071,18.641a2.074,2.074,0,0,1-2.071,2.071H47.452a2.074,2.074,0,0,1-2.071-2.071V128.975a2.074,2.074,0,0,1,2.071-2.071h6.9a.69.69,0,0,0,.67-.523l1.119-4.477a.691.691,0,0,1,.67-.523h8.891a.69.69,0,0,1,.67.523l1.119,4.477a.691.691,0,0,0,.67.523h6.9a2.074,2.074,0,0,1,2.071,2.071Z" transform="translate(-44 -120)"/></g><g transform="translate(16.428 35.457)"><path d="M156.285,216a8.285,8.285,0,1,0,8.285,8.285A8.294,8.294,0,0,0,156.285,216Zm0,15.189a6.9,6.9,0,1,1,6.9-6.9A6.912,6.912,0,0,1,156.285,231.189Z" transform="translate(-148 -216)"/></g><g transform="translate(19.189 38.219)"><path d="M185.523,248a5.523,5.523,0,1,0,5.523,5.523A5.53,5.53,0,0,0,185.523,248Zm0,9.666a4.143,4.143,0,1,1,4.143-4.143A4.147,4.147,0,0,1,185.523,257.666Z" transform="translate(-180 -248)"/></g><g transform="translate(10.214 35.457)"><path d="M80.143,216H76.69a.69.69,0,0,0-.69.69v3.452a.69.69,0,0,0,.69.69h3.452a.69.69,0,0,0,.69-.69V216.69A.69.69,0,0,0,80.143,216Zm-.69,3.452H77.381v-2.071h2.071Z" transform="translate(-76 -216)"/></g><g transform="translate(37.721 23.722)"><g transform="translate(0)"><path d="M10.9,80a.69.69,0,0,1,.69.69v6.9H10.214V81.381H4V80Z" transform="translate(-4 -80)"/></g></g></g></svg>