<?xml version="1.0" encoding="iso-8859-1"?>
<!-- Generator: Adobe Illustrator 19.0.0, SVG Export Plug-In . SVG Version: 6.00 Build 0)  -->
<svg version="1.1" id="Layer_1" xmlns="http://www.w3.org/2000/svg" xmlns:xlink="http://www.w3.org/1999/xlink" x="0px" y="0px"
	 viewBox="0 0 500 500" style="enable-background:new 0 0 500 500;" xml:space="preserve">
<g>
	<g>
		<path d="M480.384,93.714H19.62c-10.82,0-19.62,8.8-19.62,19.62v273.332c0,10.82,8.8,19.62,19.62,19.62h460.764
			c10.816,0,19.616-8.8,19.616-19.62V113.334C500,102.514,491.2,93.714,480.384,93.714z M492,386.67
			c0,6.408-5.208,11.62-11.616,11.62H19.62c-6.408,0-11.62-5.212-11.62-11.62V113.338c0-6.408,5.212-11.62,11.62-11.62v-0.004
			h460.764c6.404,0,11.616,5.212,11.616,11.62V386.67z"/>
	</g>
</g>
<g>
	<g>
		<path d="M320.284,183.526h-78.092c-2.208,0-4,1.792-4,4s1.792,4,4,4h78.092c2.212,0,4-1.792,4-4S322.492,183.526,320.284,183.526z
			"/>
	</g>
</g>
<g>
	<g>
		<path d="M449.144,183.526h-97.62c-2.208,0-4,1.792-4,4s1.792,4,4,4h97.62c2.208,0,4-1.792,4-4S451.352,183.526,449.144,183.526z"
			/>
	</g>
</g>
<g>
	<g>
		<path d="M449.144,144.478H242.192c-2.208,0-4,1.792-4,4c0,2.208,1.792,4,4,4h206.952c2.208,0,4-1.792,4-4
			C453.144,146.27,451.352,144.478,449.144,144.478z"/>
	</g>
</g>
<g>
	<g>
		<path d="M449.144,222.574H242.192c-2.208,0-4,1.792-4,4c0,2.208,1.792,4,4,4h206.952c2.208,0,4-1.792,4-4
			C453.144,224.366,451.352,222.574,449.144,222.574z"/>
	</g>
</g>
<g>
	<g>
		<path d="M449.144,261.622H300.76c-2.208,0-4,1.792-4,4s1.792,4,4,4h148.384c2.208,0,4-1.792,4-4S451.352,261.622,449.144,261.622z
			"/>
	</g>
</g>
<g>
	<g>
		<path d="M449.144,300.67H300.76c-2.208,0-4,1.792-4,4s1.792,4,4,4h148.384c2.208,0,4-1.792,4-4S451.352,300.67,449.144,300.67z"/>
	</g>
</g>
<g>
	<g>
		<path d="M269.524,261.622h-27.332c-2.208,0-4,1.792-4,4s1.792,4,4,4h27.332c2.208,0,4-1.792,4-4S271.732,261.622,269.524,261.622z
			"/>
	</g>
</g>
<g>
	<g>
		<path d="M269.524,300.67h-27.332c-2.208,0-4,1.792-4,4s1.792,4,4,4h27.332c2.208,0,4-1.792,4-4S271.732,300.67,269.524,300.67z"/>
	</g>
</g>
<g>
	<g>
		<path d="M449.144,339.718H300.76c-2.208,0-4,1.792-4,4s1.792,4,4,4h148.384c2.208,0,4-1.792,4-4S451.352,339.718,449.144,339.718z
			"/>
	</g>
</g>
<g>
	<g>
		<path d="M269.524,339.718h-27.332c-2.208,0-4,1.792-4,4s1.792,4,4,4h27.332c2.208,0,4-1.792,4-4S271.732,339.718,269.524,339.718z
			"/>
	</g>
</g>
<g>
	<g>
		<path d="M195.336,148.382c-2.208,0-4,1.792-4,4v27.24h-77.908v-23.24H168c2.208,0,4-1.792,4-4c0-2.208-1.792-4-4-4h-58.572
			c-2.208,0-4,1.792-4,4v31.24c0,2.208,1.792,4,4,4h85.904c2.212,0,4-1.792,4.004-4v-31.24
			C199.336,150.174,197.544,148.382,195.336,148.382z"/>
	</g>
</g>
<g>
	<g>
		<path d="M64.476,144.642c-12.88,0-23.36,10.48-23.36,23.36c0,12.884,10.48,23.364,23.36,23.364s23.36-10.48,23.364-23.364
			C87.84,155.122,77.36,144.642,64.476,144.642z M64.476,183.366c-8.468,0-15.36-6.892-15.36-15.364
			c0-8.468,6.892-15.36,15.36-15.36s15.36,6.892,15.364,15.36C79.84,176.474,72.948,183.366,64.476,183.366z"/>
	</g>
</g>
<g>
</g>
<g>
</g>
<g>
</g>
<g>
</g>
<g>
</g>
<g>
</g>
<g>
</g>
<g>
</g>
<g>
</g>
<g>
</g>
<g>
</g>
<g>
</g>
<g>
</g>
<g>
</g>
<g>
</g>
</svg>
