<?xml version="1.0" encoding="iso-8859-1"?>
<!-- Generator: Adobe Illustrator 19.0.0, SVG Export Plug-In . SVG Version: 6.00 Build 0)  -->
<svg version="1.1" id="Layer_1" xmlns="http://www.w3.org/2000/svg" xmlns:xlink="http://www.w3.org/1999/xlink" x="0px" y="0px"
	 viewBox="0 0 500 500" style="enable-background:new 0 0 500 500;" xml:space="preserve">
<g>
	<g>
		<path d="M251.952,289.572c-4.768,0-9.86,3.084-9.86,11.744v50.248c0,2.208,1.788,4,4,4c2.212,0,4-1.792,4-4v-50.248
			c0-3.744,1.256-3.744,1.86-3.744s1.856,0,1.856,3.744v50.248c0,2.208,1.788,4,4,4c2.212,0,4-1.792,4-4v-50.248
			C261.808,292.656,256.72,289.572,251.952,289.572z"/>
	</g>
</g>
<g>
	<g>
		<path d="M128.956,156.232H70.384c-2.212,0-4,1.792-4,4s1.788,4,4,4h58.568c2.212,0,4.004-1.792,4.004-4
			S131.168,156.232,128.956,156.232z"/>
	</g>
</g>
<g>
	<g>
		<path d="M128.956,218.708H70.384c-2.212,0-4,1.792-4,4c0,2.208,1.788,4,4,4h58.568c2.212,0,4.004-1.792,4.004-4
			C132.956,220.5,131.168,218.708,128.956,218.708z"/>
	</g>
</g>
<g>
	<g>
		<path d="M128.956,281.184H70.384c-2.212,0-4,1.792-4,4s1.788,4,4,4h58.568c2.212,0,4.004-1.792,4.004-4
			S131.168,281.184,128.956,281.184z"/>
	</g>
</g>
<g>
	<g>
		<path d="M128.956,343.66H70.384c-2.212,0-4,1.792-4,4s1.788,4,4,4h58.568c2.212,0,4.004-1.792,4.004-4
			S131.168,343.66,128.956,343.66z"/>
	</g>
</g>
<g>
	<g>
		<path d="M455.46,42.992H48.28C22.564,42.992,0,64.876,0,89.82v278.076c0,25.068,22.108,46.244,48.28,46.244h80.672
			c2.212,0,4-1.792,4-4s-1.788-4-4-4H48.28C26.444,406.14,8,388.624,8,367.896V89.82c0-20.684,18.824-38.828,40.28-38.828h407.18
			c20.488,0,36.54,17.056,36.54,38.828v278.072c0,21.444-16.052,38.244-36.54,38.244h-80.508c-2.212,0-4,1.792-4,4s1.788,4,4,4
			h80.508c24.976,0,44.54-20.312,44.54-46.24V89.82C500,63.56,480.436,42.992,455.46,42.992z"/>
	</g>
</g>
<g>
	<g>
		<path d="M382.76,89.848H11.808c-2.212,0-4,1.792-4,4c0,2.208,1.788,4,4,4H382.76c2.212,0,4-1.792,4-4
			C386.76,91.64,384.972,89.848,382.76,89.848z"/>
	</g>
</g>
<g>
	<g>
		<path d="M492.092,89.848H433.52c-2.212,0-4,1.792-4,4c0,2.208,1.788,4,4,4h58.572c2.212,0,4-1.792,4-4
			C496.092,91.64,494.304,89.848,492.092,89.848z"/>
	</g>
</g>
<g>
	<g>
		<path d="M74.284,23.468c-2.212,0-4,1.792-4,4v39.048c0,2.208,1.788,4,4,4s4-1.792,4-4V27.468
			C78.284,25.26,76.496,23.468,74.284,23.468z"/>
	</g>
</g>
<g>
	<g>
		<path d="M132.86,23.468c-2.212,0-4,1.792-4,4v39.048c0,2.208,1.788,4,4,4c2.212,0,4-1.792,4-4V27.468
			C136.86,25.26,135.072,23.468,132.86,23.468z"/>
	</g>
</g>
<g>
	<g>
		<path d="M191.428,23.468c-2.212,0-4,1.792-4,4v39.048c0,2.208,1.788,4,4,4c2.212,0,4-1.792,4-4V27.468
			C195.428,25.26,193.64,23.468,191.428,23.468z"/>
	</g>
</g>
<g>
	<g>
		<path d="M250,23.468c-2.212,0-4,1.792-4,4v39.048c0,2.208,1.788,4,4,4c2.212,0,4-1.792,4-4V27.468
			C254,25.26,252.212,23.468,250,23.468z"/>
	</g>
</g>
<g>
	<g>
		<path d="M308.572,23.468c-2.212,0-4,1.792-4,4v39.048c0,2.208,1.788,4,4,4c2.208,0,4-1.792,4-4V27.468
			C312.572,25.26,310.784,23.468,308.572,23.468z"/>
	</g>
</g>
<g>
	<g>
		<path d="M367.144,23.468c-2.212,0-4,1.792-4,4v39.048c0,2.208,1.788,4,4,4c2.212,0,4-1.792,4-4V27.468
			C371.144,25.26,369.356,23.468,367.144,23.468z"/>
	</g>
</g>
<g>
	<g>
		<path d="M425.716,23.468c-2.212,0-4,1.792-4,4v39.048c0,2.208,1.788,4,4,4c2.208,0,4-1.792,4-4V27.468
			C429.716,25.26,427.928,23.468,425.716,23.468z"/>
	</g>
</g>
<g>
	<g>
		<path d="M226.572,156.232h-54.664c-2.212,0-4,1.792-4,4s1.788,4,4,4h54.664c2.208,0,4-1.792,4-4S228.784,156.232,226.572,156.232z
			"/>
	</g>
</g>
<g>
	<g>
		<path d="M226.572,218.708h-54.664c-2.212,0-4,1.792-4,4c0,2.208,1.788,4,4,4h54.664c2.208,0,4-1.792,4-4
			C230.572,220.5,228.784,218.708,226.572,218.708z"/>
	</g>
</g>
<g id="SVGCleanerId_0">
	<g>
		<path d="M328.092,156.232h-54.664c-2.212,0-4,1.792-4,4s1.788,4,4,4h54.664c2.212,0,4-1.792,4-4S330.304,156.232,328.092,156.232z
			"/>
	</g>
</g>
<g>
	<g>
		<path d="M328.092,218.708h-54.664c-2.212,0-4,1.792-4,4c0,2.208,1.788,4,4,4h54.664c2.212,0,4-1.792,4-4
			C332.092,220.5,330.304,218.708,328.092,218.708z"/>
	</g>
</g>
<g>
	<g>
		<path d="M328.092,156.232h-54.664c-2.212,0-4,1.792-4,4s1.788,4,4,4h54.664c2.212,0,4-1.792,4-4S330.304,156.232,328.092,156.232z
			"/>
	</g>
</g>
<g>
	<g>
		<path d="M429.616,156.232h-54.664c-2.212,0-4,1.792-4,4s1.788,4,4,4h54.664c2.212,0,4-1.792,4-4S431.828,156.232,429.616,156.232z
			"/>
	</g>
</g>
<g>
	<g>
		<path d="M429.616,218.708h-54.664c-2.212,0-4,1.792-4,4c0,2.208,1.788,4,4,4h54.664c2.212,0,4-1.792,4-4
			C433.616,220.5,431.828,218.708,429.616,218.708z"/>
	</g>
</g>
<g>
	<g>
		<path d="M429.616,281.184h-54.664c-2.212,0-4,1.792-4,4s1.788,4,4,4h54.664c2.212,0,4-1.792,4-4S431.828,281.184,429.616,281.184z
			"/>
	</g>
</g>
<g>
	<g>
		<path d="M429.616,343.66h-54.664c-2.212,0-4,1.792-4,4s1.788,4,4,4h54.664c2.212,0,4-1.792,4-4S431.828,343.66,429.616,343.66z"/>
	</g>
</g>
<g>
	<g>
		<path d="M251.984,250.168c-62.408,0-113.18,50.772-113.18,113.18c0,62.412,50.772,113.184,113.18,113.184
			c62.412,0,113.184-50.776,113.184-113.184S314.396,250.168,251.984,250.168z M251.984,468.532
			c-57.996,0-105.18-47.188-105.18-105.184c0-57.996,47.184-105.18,105.18-105.18c58,0,105.184,47.18,105.184,105.18
			S309.984,468.532,251.984,468.532z"/>
	</g>
</g>
<g>
	<g>
		<path d="M251.984,265.776c-53.804,0-97.576,43.772-97.576,97.572s43.776,97.572,97.576,97.572c53.804,0,97.58-43.768,97.58-97.572
			C349.564,309.544,305.788,265.776,251.984,265.776z M251.984,452.92c-49.392,0-89.576-40.18-89.576-89.572
			c0-49.392,40.184-89.572,89.576-89.572c49.396,0,89.58,40.184,89.58,89.572C341.564,412.74,301.38,452.92,251.984,452.92z"/>
	</g>
</g>
<g>
	<g>
		<path d="M251.984,347.54c-8.716,0-15.804,7.092-15.804,15.808s7.088,15.808,15.804,15.808c8.72,0,15.812-7.092,15.812-15.808
			S260.704,347.54,251.984,347.54z M251.984,371.156c-4.304,0-7.804-3.5-7.804-7.808c0-4.308,3.5-7.808,7.804-7.808
			c4.308,0,7.812,3.504,7.812,7.808C259.796,367.656,256.292,371.156,251.984,371.156z"/>
	</g>
</g>
<g>
	<g>
		<path d="M314.452,351.468h-52.736c-2.212,0-4,1.792-4,4s1.788,4,4,4h52.736c2.064,0,3.744,1.708,3.744,3.808
			c0,2.104-1.68,3.812-3.744,3.812h-52.736c-2.212,0-4,1.792-4,4s1.788,4,4,4h52.732c6.476,0,11.748-5.3,11.748-11.812
			S320.928,351.468,314.452,351.468z"/>
	</g>
</g>
<g>
</g>
<g>
</g>
<g>
</g>
<g>
</g>
<g>
</g>
<g>
</g>
<g>
</g>
<g>
</g>
<g>
</g>
<g>
</g>
<g>
</g>
<g>
</g>
<g>
</g>
<g>
</g>
<g>
</g>
</svg>
