<?xml version="1.0" encoding="iso-8859-1"?>
<!-- Generator: Adobe Illustrator 19.0.0, SVG Export Plug-In . SVG Version: 6.00 Build 0)  -->
<svg version="1.1" id="Layer_1" xmlns="http://www.w3.org/2000/svg" xmlns:xlink="http://www.w3.org/1999/xlink" x="0px" y="0px"
	 viewBox="0 0 500 500" style="enable-background:new 0 0 500 500;" xml:space="preserve">
<g>
	<g>
		<path d="M473.688,60.524H28.544C12.004,60.524,0,70.836,0,85.048v88.808c0,2.212,1.792,4,4,4h492c2.208,0,4-1.788,4-4V85.048
			C500,70.38,489.428,60.524,473.688,60.524z M492,169.856L492,169.856H8V85.048C8,74.2,18.336,68.524,28.544,68.524h445.144
			c11.296,0,18.312,6.332,18.312,16.524V169.856z"/>
	</g>
</g>
<g>
	<g>
		<path d="M480.384,169.856c-2.208,0-4,1.788-4,4V409.14c0,10.568-7.52,22.336-18.312,22.336H44.164
			c-10.176,0-20.544-11.272-20.544-22.336V173.856c0-2.212-1.792-4-4-4s-4,1.788-4,4V409.14c0,15.592,13.872,30.336,28.544,30.336
			h413.908c15.74,0,26.312-15.688,26.312-30.336V173.856C484.384,171.644,482.592,169.856,480.384,169.856z"/>
	</g>
</g>
<g>
	<g>
		<path d="M460.856,83.952H4c-2.208,0-4,1.788-4,4c0,2.212,1.792,4,4,4h456.856c2.208,0,4-1.788,4-4
			C464.856,85.74,463.064,83.952,460.856,83.952z"/>
	</g>
</g>
<g>
	<g>
		<path d="M352.636,203.544c-2.208,0-4,1.788-4,4c0,11.128-9.08,20.884-19.428,20.884H173.02c-10.532,0-19.428-9.232-19.428-20.152
			c0-2.212-1.792-4-4-4c-2.208,0-4,1.788-4,4c0,15.26,12.56,28.152,27.428,28.152h156.192c14.612,0,27.428-13.496,27.424-28.884
			C356.636,205.332,354.844,203.544,352.636,203.544z"/>
	</g>
</g>
<g>
	<g>
		<path d="M148.476,169.856c-2.208,0-4,1.788-4,4V209c0,2.212,1.792,4,4,4s4-1.788,4-4v-35.144
			C152.476,171.644,150.684,169.856,148.476,169.856z"/>
	</g>
</g>
<g>
	<g>
		<path d="M351.524,169.856c-2.208,0-4,1.788-4,4V209c0,2.212,1.792,4,4,4s4-1.788,4-4v-35.144
			C355.524,171.644,353.732,169.856,351.524,169.856z"/>
	</g>
</g>
<g>
</g>
<g>
</g>
<g>
</g>
<g>
</g>
<g>
</g>
<g>
</g>
<g>
</g>
<g>
</g>
<g>
</g>
<g>
</g>
<g>
</g>
<g>
</g>
<g>
</g>
<g>
</g>
<g>
</g>
</svg>
