<?xml version="1.0" encoding="iso-8859-1"?>
<!-- Generator: Adobe Illustrator 19.0.0, SVG Export Plug-In . SVG Version: 6.00 Build 0)  -->
<svg version="1.1" id="Layer_1" xmlns="http://www.w3.org/2000/svg" xmlns:xlink="http://www.w3.org/1999/xlink" x="0px" y="0px"
	 viewBox="0 0 500 500" style="enable-background:new 0 0 500 500;" xml:space="preserve">
<g>
	<g>
		<path d="M495.096,464.264H35.284V4.452c0-2.212-1.792-4-4-4s-4,1.788-4,4v463.812c0,2.212,1.792,4,4,4h463.812
			c2.208,0,4-1.788,4-4C499.096,466.052,497.304,464.264,495.096,464.264z"/>
	</g>
</g>
<g>
	<g>
		<path d="M31.284,464.268c-2.208,0-4,1.788-4,4v27.28c0,2.212,1.792,4,4,4s4-1.792,4-4v-27.28
			C35.284,466.056,33.492,464.268,31.284,464.268z"/>
	</g>
</g>
<g>
	<g>
		<path d="M74.156,464.268c-2.208,0-4,1.788-4,4v27.28c0,2.212,1.792,4,4,4c2.212,0,4-1.792,4-4v-27.28
			C78.156,466.056,76.364,464.268,74.156,464.268z"/>
	</g>
</g>
<g>
	<g>
		<path d="M117.032,464.268c-2.208,0-4,1.788-4,4v27.28c0,2.212,1.792,4,4,4s4-1.792,4-4v-27.28
			C121.032,466.056,119.24,464.268,117.032,464.268z"/>
	</g>
</g>
<g>
	<g>
		<path d="M159.904,464.268c-2.208,0-4,1.788-4,4v27.28c0,2.212,1.792,4,4,4c2.208,0,4-1.792,4-4v-27.28
			C163.904,466.056,162.112,464.268,159.904,464.268z"/>
	</g>
</g>
<g>
	<g>
		<path d="M202.776,464.268c-2.208,0-4,1.788-4,4v27.28c0,2.212,1.792,4,4,4s4-1.792,4-4v-27.28
			C206.776,466.056,204.984,464.268,202.776,464.268z"/>
	</g>
</g>
<g>
	<g>
		<path d="M245.652,464.268c-2.208,0-4,1.788-4,4v27.28c0,2.212,1.792,4,4,4c2.208,0,4-1.792,4-4v-27.28
			C249.652,466.056,247.86,464.268,245.652,464.268z"/>
	</g>
</g>
<g>
	<g>
		<path d="M288.524,464.268c-2.208,0-4,1.788-4,4v27.28c0,2.212,1.792,4,4,4s4-1.792,4-4v-27.28
			C292.524,466.056,290.732,464.268,288.524,464.268z"/>
	</g>
</g>
<g>
	<g>
		<path d="M331.396,464.268c-2.208,0-4,1.788-4,4v27.28c0,2.212,1.792,4,4,4s4-1.792,4-4v-27.28
			C335.396,466.056,333.604,464.268,331.396,464.268z"/>
	</g>
</g>
<g>
	<g>
		<path d="M460.016,464.268c-2.208,0-4,1.788-4,4v27.28c0,2.212,1.792,4,4,4s4-1.792,4-4v-27.28
			C464.016,466.056,462.224,464.268,460.016,464.268z"/>
	</g>
</g>
<g>
	<g>
		<path d="M374.272,464.268c-2.208,0-4,1.788-4,4v27.28c0,2.212,1.792,4,4,4s4-1.792,4-4v-27.28
			C378.272,466.056,376.48,464.268,374.272,464.268z"/>
	</g>
</g>
<g>
	<g>
		<path d="M417.144,464.268c-2.208,0-4,1.788-4,4v27.28c0,2.212,1.792,4,4,4c2.212,0,4-1.792,4-4v-27.28
			C421.144,466.056,419.352,464.268,417.144,464.268z"/>
	</g>
</g>
<g>
	<g>
		<path d="M31.284,464.264H4c-2.208,0-4,1.788-4,4c0,2.212,1.792,4,4,4h27.284c2.208,0,4-1.788,4-4
			C35.284,466.052,33.492,464.264,31.284,464.264z"/>
	</g>
</g>
<g>
	<g>
		<path d="M31.284,421.392H4c-2.208,0-4,1.788-4,4c0,2.212,1.792,4,4,4h27.284c2.208,0,4-1.788,4-4
			C35.284,423.18,33.492,421.392,31.284,421.392z"/>
	</g>
</g>
<g>
	<g>
		<path d="M31.284,378.516H4c-2.208,0-4,1.788-4,4c0,2.212,1.792,4,4,4h27.284c2.208,0,4-1.788,4-4
			C35.284,380.304,33.492,378.516,31.284,378.516z"/>
	</g>
</g>
<g>
	<g>
		<path d="M31.284,335.644H4c-2.208,0-4,1.788-4,4c0,2.212,1.792,4,4,4h27.284c2.208,0,4-1.788,4-4
			C35.284,337.432,33.492,335.644,31.284,335.644z"/>
	</g>
</g>
<g>
	<g>
		<path d="M31.284,292.768H4c-2.208,0-4,1.788-4,4c0,2.212,1.792,4,4,4h27.284c2.208,0,4-1.788,4-4
			C35.284,294.556,33.492,292.768,31.284,292.768z"/>
	</g>
</g>
<g>
	<g>
		<path d="M31.284,249.9H4c-2.208,0-4,1.788-4,4c0,2.212,1.792,4,4,4h27.284c2.208,0,4-1.788,4-4
			C35.284,251.688,33.492,249.9,31.284,249.9z"/>
	</g>
</g>
<g>
	<g>
		<path d="M31.284,207.024H4c-2.208,0-4,1.788-4,4c0,2.212,1.792,4,4,4h27.284c2.208,0,4-1.788,4-4
			C35.284,208.812,33.492,207.024,31.284,207.024z"/>
	</g>
</g>
<g>
	<g>
		<path d="M31.284,164.152H4c-2.208,0-4,1.788-4,4c0,2.212,1.792,4,4,4h27.284c2.208,0,4-1.788,4-4
			C35.284,165.94,33.492,164.152,31.284,164.152z"/>
	</g>
</g>
<g>
	<g>
		<path d="M31.284,35.532H4c-2.208,0-4,1.788-4,4c0,2.212,1.792,4,4,4h27.284c2.208,0,4-1.788,4-4
			C35.284,37.32,33.492,35.532,31.284,35.532z"/>
	</g>
</g>
<g>
	<g>
		<path d="M31.284,121.276H4c-2.208,0-4,1.788-4,4s1.792,4,4,4h27.284c2.208,0,4-1.788,4-4S33.492,121.276,31.284,121.276z"/>
	</g>
</g>
<g>
	<g>
		<path d="M31.284,78.408H4c-2.208,0-4,1.788-4,4c0,2.212,1.792,4,4,4h27.284c2.208,0,4-1.788,4-4
			C35.284,80.196,33.492,78.408,31.284,78.408z"/>
	</g>
</g>
<g>
	<g>
		<path d="M128.732,319.36c-10.948,0-19.86,8.916-19.86,19.868c0,10.948,8.908,19.856,19.86,19.856s19.86-8.904,19.86-19.856
			C148.592,328.276,139.68,319.36,128.732,319.36z M128.732,351.088c-6.54,0-11.86-5.316-11.86-11.856
			c0-6.544,5.32-11.868,11.86-11.868s11.86,5.324,11.86,11.868C140.592,345.772,135.272,351.088,128.732,351.088z"/>
	</g>
</g>
<g>
	<g>
		<path d="M164.292,206.084c-10.952,0-19.86,8.912-19.86,19.864c0,10.948,8.908,19.856,19.86,19.856
			c10.952,0,19.86-8.904,19.86-19.856C184.152,214.996,175.244,206.084,164.292,206.084z M164.292,237.804
			c-6.54,0-11.86-5.316-11.86-11.856c0-6.544,5.32-11.864,11.86-11.864c6.54,0,11.86,5.324,11.86,11.864
			S170.832,237.804,164.292,237.804z"/>
	</g>
</g>
<g>
	<g>
		<path d="M238.824,163.184c-10.952,0-19.86,8.912-19.86,19.86s8.908,19.86,19.86,19.86c10.952,0,19.86-8.912,19.86-19.86
			S249.776,163.184,238.824,163.184z M238.824,194.904c-6.54,0-11.86-5.32-11.86-11.86s5.32-11.86,11.86-11.86
			c6.54,0,11.86,5.32,11.86,11.86S245.364,194.904,238.824,194.904z"/>
	</g>
</g>
<g>
	<g>
		<path d="M347.472,309.7c-10.952,0-19.86,8.912-19.86,19.86c0,10.952,8.908,19.864,19.86,19.864
			c10.956,0,19.864-8.908,19.864-19.864C367.336,318.612,358.424,309.7,347.472,309.7z M347.472,341.428
			c-6.54,0-11.86-5.32-11.86-11.864c0-6.54,5.32-11.86,11.86-11.86c6.544,0,11.864,5.32,11.864,11.86
			C359.336,336.108,354.012,341.428,347.472,341.428z"/>
	</g>
</g>
<g>
	<g>
		<path d="M480.14,365.832c-10.952,0-19.864,8.908-19.864,19.856c0,10.952,8.912,19.864,19.864,19.864S500,396.64,500,385.688
			C500,374.74,491.092,365.832,480.14,365.832z M480.14,397.552c-6.54,0-11.864-5.32-11.864-11.864
			c0-6.54,5.324-11.856,11.864-11.856c6.54,0,11.86,5.316,11.86,11.856C492,392.232,486.68,397.552,480.14,397.552z"/>
	</g>
</g>
<g>
	<g>
		<path d="M226.476,342.092c-10.952,0-19.864,8.916-19.864,19.868c0,10.948,8.912,19.856,19.864,19.856
			c10.952,0,19.86-8.904,19.856-19.856C246.332,351.008,237.424,342.092,226.476,342.092z M226.476,373.816
			c-6.54,0-11.864-5.32-11.864-11.856c0-6.544,5.324-11.868,11.864-11.868s11.86,5.324,11.856,11.868
			C238.332,368.496,233.016,373.816,226.476,373.816z"/>
	</g>
</g>
<g>
	<g>
		<path d="M347.472,233.352c-10.952,0-19.86,8.908-19.86,19.856c0,10.952,8.908,19.868,19.86,19.868
			c10.956,0,19.864-8.916,19.864-19.868C367.336,242.26,358.424,233.352,347.472,233.352z M347.472,265.076
			c-6.54,0-11.86-5.324-11.86-11.868c0-6.54,5.32-11.856,11.86-11.856c6.544,0,11.864,5.316,11.864,11.856
			C359.336,259.752,354.012,265.076,347.472,265.076z"/>
	</g>
</g>
<g>
	<g>
		<path d="M467.972,45.652c-10.952,0-19.864,8.908-19.864,19.856s8.912,19.86,19.864,19.86s19.86-8.912,19.86-19.86
			S478.924,45.652,467.972,45.652z M467.972,77.368c-6.54,0-11.864-5.32-11.864-11.86s5.324-11.856,11.864-11.856
			c6.54,0,11.86,5.316,11.86,11.856S474.512,77.368,467.972,77.368z"/>
	</g>
</g>
<g>
	<g>
		<path d="M327.916,274.444c-1.448-1.676-3.972-1.86-5.644-0.416l-86.408,74.548c-1.672,1.44-1.86,3.968-0.416,5.64
			c0.792,0.92,1.908,1.388,3.032,1.388c0.928,0,1.856-0.32,2.612-0.972l86.408-74.548
			C329.172,278.644,329.36,276.116,327.916,274.444z"/>
	</g>
</g>
<g>
	<g>
		<path d="M195.972,351.812l-51.856-10.308c-2.168-0.46-4.276,0.976-4.704,3.14c-0.432,2.168,0.976,4.276,3.144,4.704l51.856,10.308
			c0.264,0.056,0.528,0.08,0.784,0.08c1.868,0,3.54-1.32,3.92-3.22C199.548,354.348,198.14,352.24,195.972,351.812z"/>
	</g>
</g>
<g>
	<g>
		<path d="M105.852,359.32c-1.456-1.656-3.98-1.82-5.644-0.364l-71.352,62.656c-1.66,1.456-1.824,3.984-0.368,5.644
			c0.792,0.9,1.896,1.36,3.008,1.36c0.936,0,1.876-0.328,2.636-0.996l71.352-62.656C107.144,363.508,107.308,360.98,105.852,359.32z
			"/>
	</g>
</g>
<g>
	<g>
		<path d="M452.704,89.296c-1.856-1.196-4.332-0.656-5.524,1.208l-94.504,147.208c-1.196,1.86-0.656,4.332,1.204,5.528
			c0.668,0.428,1.416,0.632,2.156,0.632c1.316,0,2.604-0.648,3.368-1.84l94.504-147.208
			C455.104,92.964,454.564,90.492,452.704,89.296z"/>
	</g>
</g>
<g>
	<g>
		<path d="M133.416,218.232L31.968,206.116c-2.172-0.284-4.184,1.3-4.448,3.5c-0.26,2.192,1.308,4.184,3.5,4.444l101.448,12.116
			c0.16,0.02,0.32,0.028,0.48,0.028c1.996,0,3.72-1.492,3.968-3.528C137.176,220.484,135.608,218.492,133.416,218.232z"/>
	</g>
</g>
<g>
	<g>
		<path d="M214.736,196.908c-1.104-1.912-3.552-2.564-5.46-1.472l-33.24,19.128c-1.916,1.104-2.572,3.548-1.472,5.464
			c0.74,1.284,2.088,2.004,3.472,2.004c0.676,0,1.364-0.172,1.988-0.532l33.24-19.128
			C215.18,201.268,215.836,198.824,214.736,196.908z"/>
	</g>
</g>
<g>
	<g>
		<path d="M331.628,301.476L251.48,193.392c-1.312-1.772-3.816-2.132-5.596-0.832c-1.776,1.316-2.148,3.824-0.832,5.596
			L325.2,306.24c0.784,1.056,1.992,1.616,3.216,1.616c0.828,0,1.66-0.26,2.38-0.784
			C332.572,305.756,332.944,303.248,331.628,301.476z"/>
	</g>
</g>
<g>
	<g>
		<path d="M453.524,370.08l-89.876-38.024c-2.04-0.856-4.384,0.084-5.244,2.124c-0.864,2.036,0.088,4.384,2.124,5.244l89.876,38.024
			c0.508,0.216,1.036,0.316,1.556,0.316c1.56,0,3.04-0.912,3.688-2.44C456.512,373.288,455.56,370.94,453.524,370.08z"/>
	</g>
</g>
<g>
</g>
<g>
</g>
<g>
</g>
<g>
</g>
<g>
</g>
<g>
</g>
<g>
</g>
<g>
</g>
<g>
</g>
<g>
</g>
<g>
</g>
<g>
</g>
<g>
</g>
<g>
</g>
<g>
</g>
</svg>
