<?xml version="1.0" encoding="iso-8859-1"?>
<!-- Generator: Adobe Illustrator 19.0.0, SVG Export Plug-In . SVG Version: 6.00 Build 0)  -->
<svg version="1.1" id="Layer_1" xmlns="http://www.w3.org/2000/svg" xmlns:xlink="http://www.w3.org/1999/xlink" x="0px" y="0px"
	 viewBox="0 0 499.96 499.96" style="enable-background:new 0 0 499.96 499.96;" xml:space="preserve">
<g>
	<g>
		<path d="M449.112,111.276H50.852C22.812,111.276,0,134.088,0,162.128v249.888c0,28.04,22.812,50.852,50.852,50.852h398.26
			c28.036,0,50.848-22.812,50.848-50.852V162.128C499.96,134.088,477.148,111.276,449.112,111.276z M491.96,412.016
			c0,23.628-19.22,42.852-42.848,42.852H50.852C27.224,454.868,8,435.644,8,412.016V162.128c0-23.628,19.224-42.852,42.852-42.852
			h398.26c23.628,0,42.848,19.224,42.848,42.852V412.016z"/>
	</g>
</g>
<g>
	<g>
		<path d="M406.16,419.728H52.552C28.404,419.728,8,400.216,8,377.12c0-2.208-1.792-4-4-4s-4,1.792-4,4
			c0,27.432,24.064,50.608,52.552,50.608H406.16c2.208,0,4-1.792,4-4S408.368,419.728,406.16,419.728z"/>
	</g>
</g>
<g>
	<g>
		<path d="M495.96,371.256c-2.208,0-4,1.792-4,4c0,24.24-17.552,42.52-40.828,42.52c-2.208,0-4,1.792-4,4s1.792,4,4,4
			c27.38,0,48.828-22.192,48.828-50.52C499.96,373.048,498.168,371.256,495.96,371.256z"/>
	</g>
</g>
<g>
	<g>
		<path d="M497.6,152.632c-1.248-1.828-3.728-2.296-5.56-1.056L287.972,290.56c-4.188,2.868-9.048,5.192-14.448,6.904
			c-2.104,0.668-3.268,2.92-2.6,5.024c0.544,1.704,2.116,2.792,3.812,2.792c0.404,0,0.812-0.064,1.212-0.192
			c6.144-1.952,11.708-4.616,16.536-7.92l204.06-138.976C498.372,156.948,498.844,154.46,497.6,152.632z"/>
	</g>
</g>
<g>
	<g>
		<path d="M229.66,297.488c-5.428-1.712-10.32-4.048-14.536-6.928L8.872,149.068c-1.828-1.248-4.316-0.78-5.564,1.036
			c-1.248,1.824-0.784,4.316,1.036,5.564l206.26,141.5c4.872,3.328,10.472,6.004,16.648,7.956c0.4,0.128,0.808,0.188,1.208,0.188
			c1.696,0,3.272-1.092,3.808-2.804C232.936,300.404,231.768,298.156,229.66,297.488z"/>
	</g>
</g>
<g>
	<g>
		<path d="M306.444,37.092h-109.2c-32.316,0-56.684,24.452-56.684,56.872v21.312c0,2.208,1.792,4,4,4s4-1.792,4-4V93.964
			c0-27.864,20.932-48.872,48.684-48.872h109.2c27.856,0,48.86,21.012,48.86,48.872v21.312c0,2.208,1.792,4,4,4s4-1.792,4-4V93.964
			C363.304,61.54,338.86,37.092,306.444,37.092z"/>
	</g>
</g>
<g>
	<g>
		<path d="M306.5,52.708H201.18c-24.76,0-44.908,18.408-44.908,41.032v21.532c0,2.208,1.792,4,4,4c2.208,0,4-1.792,4-4V93.74
			c0-18.212,16.556-33.032,36.908-33.032H306.5c19.232,0,33.188,13.892,33.188,33.032v21.536c0,2.208,1.792,4,4,4s4-1.792,4-4.004
			V93.74C347.688,69.964,330.364,52.708,306.5,52.708z"/>
	</g>
</g>
<g>
	<g>
		<path d="M251.604,277.34c-15.116,0-27.416,12.304-27.416,27.42c0,15.116,12.3,27.416,27.416,27.416
			c15.12,0,27.416-12.296,27.416-27.416S266.724,277.34,251.604,277.34z M251.604,324.172c-10.704,0-19.416-8.708-19.416-19.416
			s8.712-19.42,19.416-19.42c10.708,0,19.42,8.712,19.416,19.42C271.02,315.46,262.312,324.172,251.604,324.172z"/>
	</g>
</g>
<g>
</g>
<g>
</g>
<g>
</g>
<g>
</g>
<g>
</g>
<g>
</g>
<g>
</g>
<g>
</g>
<g>
</g>
<g>
</g>
<g>
</g>
<g>
</g>
<g>
</g>
<g>
</g>
<g>
</g>
</svg>
