<?xml version="1.0" encoding="iso-8859-1"?>
<!-- Generator: Adobe Illustrator 19.0.0, SVG Export Plug-In . SVG Version: 6.00 Build 0)  -->
<svg version="1.1" id="Layer_1" xmlns="http://www.w3.org/2000/svg" xmlns:xlink="http://www.w3.org/1999/xlink" x="0px" y="0px"
	 viewBox="0 0 500 500" style="enable-background:new 0 0 500 500;" xml:space="preserve">
<g>
	<g>
		<path d="M464.76,0H35.24C15.808,0,0,15.812,0,35.24v429.52C0,484.192,15.812,500,35.24,500h429.52
			c19.432,0,35.24-15.808,35.24-35.24V35.24C500,15.808,484.188,0,464.76,0z M492,464.76c0,15.02-12.22,27.24-27.24,27.24H35.24
			C20.22,492,8,479.78,8,464.76V35.24C8,20.22,20.22,8,35.24,8h429.52C479.78,8,492,20.22,492,35.24V464.76z"/>
	</g>
</g>
<g>
	<g>
		<path d="M417.904,148.384H191.428c-2.212,0-4,1.788-4,4c0,2.212,1.788,4,4,4h226.48c2.208,0,3.996-1.788,3.996-4
			C421.904,150.172,420.116,148.384,417.904,148.384z"/>
	</g>
</g>
<g>
	<g>
		<path d="M417.904,253.808H191.428c-2.212,0-4,1.788-4,4s1.788,4,4,4h226.48c2.208,0,3.996-1.788,3.996-4
			S420.116,253.808,417.904,253.808z"/>
	</g>
</g>
<g>
	<g>
		<path d="M417.904,359.24H191.428c-2.212,0-4,1.788-4,4c0,2.212,1.788,4,4,4h226.48c2.208,0,3.996-1.788,3.996-4
			S420.116,359.24,417.904,359.24z"/>
	</g>
</g>
<g>
	<g>
		<path d="M118.58,124.12c-15.132,0-27.44,12.308-27.44,27.436c0,15.132,12.308,27.44,27.44,27.44s27.44-12.308,27.44-27.44
			C146.02,136.428,133.712,124.12,118.58,124.12z M118.58,170.992c-10.716,0-19.44-8.724-19.44-19.44s8.72-19.436,19.44-19.436
			c10.716,0,19.44,8.72,19.44,19.436S129.296,170.992,118.58,170.992z"/>
	</g>
</g>
<g>
	<g>
		<path d="M118.58,229.548c-15.132,0-27.44,12.308-27.44,27.432c0,15.132,12.308,27.444,27.44,27.444s27.44-12.312,27.44-27.444
			C146.02,241.856,133.712,229.548,118.58,229.548z M118.58,276.424c-10.716,0-19.44-8.72-19.44-19.444
			c0-10.712,8.72-19.432,19.44-19.432c10.716,0,19.44,8.716,19.44,19.432C138.02,267.7,129.296,276.424,118.58,276.424z"/>
	</g>
</g>
<g>
	<g>
		<path d="M118.58,334.976c-15.132,0-27.44,12.308-27.44,27.436c0,15.132,12.308,27.444,27.44,27.444s27.44-12.312,27.44-27.444
			C146.02,347.284,133.712,334.976,118.58,334.976z M118.58,381.852c-10.716,0-19.44-8.72-19.44-19.444
			c0-10.716,8.72-19.436,19.44-19.436c10.716,0,19.44,8.72,19.44,19.436C138.02,373.128,129.296,381.852,118.58,381.852z"/>
	</g>
</g>
<g>
</g>
<g>
</g>
<g>
</g>
<g>
</g>
<g>
</g>
<g>
</g>
<g>
</g>
<g>
</g>
<g>
</g>
<g>
</g>
<g>
</g>
<g>
</g>
<g>
</g>
<g>
</g>
<g>
</g>
</svg>
