<?xml version="1.0" encoding="iso-8859-1"?>
<!-- Generator: Adobe Illustrator 19.0.0, SVG Export Plug-In . SVG Version: 6.00 Build 0)  -->
<svg version="1.1" id="Layer_1" xmlns="http://www.w3.org/2000/svg" xmlns:xlink="http://www.w3.org/1999/xlink" x="0px" y="0px"
	 viewBox="0 0 500 500" style="enable-background:new 0 0 500 500;" xml:space="preserve">
<g>
	<g>
		<path d="M128.328,226.764c-9.652,0-17.5,7.852-17.5,17.5c0,9.648,7.852,17.5,17.5,17.5s17.5-7.852,17.5-17.5
			S137.98,226.764,128.328,226.764z M128.328,253.764c-5.24,0-9.5-4.26-9.5-9.5c0-5.24,4.264-9.5,9.5-9.5s9.5,4.26,9.5,9.5
			C137.828,249.504,133.568,253.764,128.328,253.764z"/>
	</g>
</g>
<g>
	<g>
		<path d="M229.94,268.812c-9.652,0-17.5,7.848-17.5,17.496s7.848,17.5,17.5,17.5c9.644,0,17.496-7.852,17.496-17.5
			S239.588,268.812,229.94,268.812z M229.94,295.808c-5.24,0-9.5-4.26-9.5-9.5c0-5.236,4.26-9.496,9.5-9.496
			c5.232,0,9.492,4.264,9.496,9.496C239.436,291.548,235.176,295.808,229.94,295.808z"/>
	</g>
</g>
<g>
	<g>
		<path d="M331.588,151.044c-9.652,0-17.504,7.852-17.504,17.5s7.852,17.496,17.504,17.496c9.648,0,17.496-7.848,17.496-17.496
			S341.236,151.044,331.588,151.044z M331.588,178.04c-5.24,0-9.504-4.26-9.504-9.496c0-5.24,4.264-9.5,9.504-9.5
			s9.496,4.26,9.496,9.5C341.084,173.78,336.824,178.04,331.588,178.04z"/>
	</g>
</g>
<g>
	<g>
		<path d="M316.48,187.448c-1.672-1.444-4.2-1.26-5.644,0.416l-74.188,85.904c-1.444,1.672-1.26,4.196,0.412,5.64
			c0.756,0.652,1.688,0.972,2.612,0.972c1.124,0,2.24-0.468,3.028-1.388l74.192-85.904
			C318.336,191.416,318.152,188.892,316.48,187.448z"/>
	</g>
</g>
<g>
	<g>
		<path d="M204.548,272.284L145.8,244.7c-2-0.944-4.38-0.084-5.32,1.92c-0.94,2-0.08,4.384,1.92,5.32l58.748,27.588
			c0.548,0.26,1.124,0.38,1.696,0.38c1.5,0,2.94-0.852,3.624-2.304C207.408,275.604,206.548,273.22,204.548,272.284z"/>
	</g>
</g>
<g>
	<g>
		<path d="M113.42,261.608c-1.788-1.292-4.284-0.9-5.588,0.884L29.3,370.444c-1.3,1.784-0.904,4.284,0.88,5.584
			c0.708,0.516,1.532,0.764,2.348,0.764c1.236,0,2.456-0.568,3.236-1.648L114.3,267.192
			C115.6,265.408,115.204,262.908,113.42,261.608z"/>
	</g>
</g>
<g>
	<g>
		<path d="M469.236,59.072c-1.404-1.7-3.928-1.944-5.632-0.54L342.54,158.388c-1.704,1.404-1.948,3.924-0.54,5.632
			c0.792,0.956,1.936,1.452,3.088,1.452c0.896,0,1.8-0.3,2.544-0.912l121.064-99.856C470.4,63.3,470.644,60.78,469.236,59.072z"/>
	</g>
</g>
<g>
	<g>
		<path d="M468.664,52.716c-2.208,0-4,1.788-4,4v316.192H35.332V56.716c0-2.212-1.792-4-4-4c-2.208,0-4,1.788-4,4v320.192
			c0,2.212,1.792,4,4,4h437.336c2.208,0,4-1.792,3.996-4V56.716C472.664,54.504,470.872,52.716,468.664,52.716z"/>
	</g>
</g>
<g>
	<g>
		<path d="M484.288,21.476H15.716c-2.208,0-4,1.788-4,4v31.24c0,2.212,1.792,4,4,4H414c2.208,0,4-1.788,4-4c0-2.212-1.792-4-4-4
			H19.716v-23.24h460.568v23.24h-31.14c-2.208,0-4,1.788-4,4c0,2.212,1.792,4,4,4h35.14c2.212,0,4-1.792,4.004-4v-31.24
			C488.288,23.264,486.496,21.476,484.288,21.476z"/>
	</g>
</g>
<g>
	<g>
		<path d="M496,21.476H4c-2.208,0-4,1.788-4,4c0,2.212,1.792,4,4,4h492c2.208,0,4-1.788,4-4C500,23.264,498.208,21.476,496,21.476z"
			/>
	</g>
</g>
<g>
	<g>
		<path d="M250,1.952c-2.208,0-4,1.788-4,4v15.62c0,2.212,1.792,4,4,4s4-1.792,4-4.004V5.952C254,3.74,252.208,1.952,250,1.952z"/>
	</g>
</g>
<g>
	<g>
		<path d="M250,372.908c-2.208,0-4,1.788-4,4v117.14c0,2.212,1.792,4,4,4s4-1.792,4-4v-117.14
			C254,374.696,252.208,372.908,250,372.908z"/>
	</g>
</g>
<g>
	<g>
		<path d="M363.24,490.048H136.76c-2.208,0-4,1.788-4,4c0,2.212,1.792,4,4,4h226.48c2.208,0,4-1.788,4-4
			C367.24,491.836,365.448,490.048,363.24,490.048z"/>
	</g>
</g>
<g>
</g>
<g>
</g>
<g>
</g>
<g>
</g>
<g>
</g>
<g>
</g>
<g>
</g>
<g>
</g>
<g>
</g>
<g>
</g>
<g>
</g>
<g>
</g>
<g>
</g>
<g>
</g>
<g>
</g>
</svg>
