<?xml version="1.0" encoding="iso-8859-1"?>
<!-- Generator: Adobe Illustrator 19.0.0, SVG Export Plug-In . SVG Version: 6.00 Build 0)  -->
<svg version="1.1" id="Layer_1" xmlns="http://www.w3.org/2000/svg" xmlns:xlink="http://www.w3.org/1999/xlink" x="0px" y="0px"
	 viewBox="0 0 500.004 500.004" style="enable-background:new 0 0 500.004 500.004;" xml:space="preserve">
<g>
	<g>
		<path d="M427.848,65.122c-0.488-0.208-1.02-0.324-1.58-0.324h-3.628c-2.208,0-4,1.792-4,4c0,2.208,1.792,4,4,4
			c21.588,0,34.492,20.444,34.492,40.204v260.584c0,21.532-13.86,36-34.492,36H81.044c-21.408,0-38.18-15.812-38.18-36V113.002
			c0-21.416,17.844-40.204,38.18-40.204h27.552c2.208,0,4-1.792,4-4c0-2.208-1.792-4-4-4H81.044
			c-25.032,0-46.18,22.076-46.18,48.204v260.584c0,24.672,20.284,44,46.18,44H422.64c25.02,0,42.492-18.092,42.492-44V113.002
			C465.132,90.894,451.3,68.082,427.848,65.122z"/>
	</g>
</g>
<g>
	<g>
		<path d="M372.032,64.802H127.968c-2.208,0-4,1.792-4,4s1.792,4,4,4h244.064c2.208,0,4-1.792,4-4S374.24,64.802,372.032,64.802z"/>
	</g>
</g>
<g>
	<g>
		<path d="M418.52,64.802h-27.116c-2.208,0-4,1.792-4,4s1.792,4,4,4h27.116c2.208,0,4-1.792,4-4S420.728,64.802,418.52,64.802z"/>
	</g>
</g>
<g>
	<g>
		<path d="M364.284,122.914H42.74c-2.208,0-4,1.792-4,4s1.792,4,4,4h321.544c2.212,0,4-1.792,4-4S366.492,122.914,364.284,122.914z"
			/>
	</g>
</g>
<g>
	<g>
		<path d="M461.132,122.914h-54.236c-2.208,0-4,1.792-4,4s1.792,4,4,4h54.236c2.208,0,4-1.792,4-4S463.34,122.914,461.132,122.914z"
			/>
	</g>
</g>
<g>
	<g>
		<path d="M325.544,169.398h-54.236c-2.208,0-4,1.792-4,4c0,2.208,1.792,4,4,4h54.236c2.208,0,4-1.792,4-4
			C329.544,171.19,327.752,169.398,325.544,169.398z"/>
	</g>
</g>
<g>
	<g>
		<path d="M325.544,231.382h-54.236c-2.208,0-4,1.792-4,4c0,2.208,1.792,4,4,4h54.236c2.208,0,4-1.792,4-4
			C329.544,233.174,327.752,231.382,325.544,231.382z"/>
	</g>
</g>
<g>
	<g>
		<path d="M325.544,293.366h-54.236c-2.208,0-4,1.792-4,4s1.792,4,4,4h54.236c2.208,0,4-1.792,4-4S327.752,293.366,325.544,293.366z
			"/>
	</g>
</g>
<g>
	<g>
		<path d="M325.544,355.35h-54.236c-2.208,0-4,1.792-4,4s1.792,4,4,4h54.236c2.208,0,4-1.792,4-4S327.752,355.35,325.544,355.35z"/>
	</g>
</g>
<g>
	<g>
		<path d="M422.396,169.398h-54.24c-2.208,0-4,1.792-4,4c0,2.208,1.792,4,4,4h54.24c2.208,0,4-1.792,4-4
			C426.396,171.19,424.604,169.398,422.396,169.398z"/>
	</g>
</g>
<g>
	<g>
		<path d="M422.396,231.382h-54.24c-2.208,0-4,1.792-4,4c0,2.208,1.792,4,4,4h54.24c2.208,0,4-1.792,4-4
			C426.396,233.174,424.604,231.382,422.396,231.382z"/>
	</g>
</g>
<g>
	<g>
		<path d="M422.396,293.366h-54.24c-2.208,0-4,1.792-4,4s1.792,4,4,4h54.24c2.208,0,4-1.792,4-4S424.604,293.366,422.396,293.366z"
			/>
	</g>
</g>
<g>
	<g>
		<path d="M422.396,355.35h-54.24c-2.208,0-4,1.792-4,4s1.792,4,4,4h54.24c2.208,0,4-1.792,4-4S424.604,355.35,422.396,355.35z"/>
	</g>
</g>
<g>
	<g>
		<path d="M131.84,169.398H81.48c-2.208,0-4,1.792-4,4c0,2.208,1.792,4,4,4h50.36c2.212,0,4-1.792,4-4
			C135.84,171.19,134.048,169.398,131.84,169.398z"/>
	</g>
</g>
<g>
	<g>
		<path d="M131.84,231.382H81.48c-2.208,0-4,1.792-4,4c0,2.208,1.792,4,4,4h50.36c2.212,0,4-1.792,4-4
			C135.84,233.174,134.048,231.382,131.84,231.382z"/>
	</g>
</g>
<g>
	<g>
		<path d="M131.84,293.366H81.48c-2.208,0-4,1.792-4,4s1.792,4,4,4h50.36c2.212,0,4-1.792,4-4S134.048,293.366,131.84,293.366z"/>
	</g>
</g>
<g>
	<g>
		<path d="M131.84,355.35H81.48c-2.208,0-4,1.792-4,4s1.792,4,4,4h50.36c2.212,0,4-1.792,4-4S134.048,355.35,131.84,355.35z"/>
	</g>
</g>
<g>
	<g>
		<path d="M228.692,169.398h-54.236c-2.208,0-4,1.792-4,4c0,2.208,1.792,4,4,4h54.236c2.212,0,4-1.792,4-4
			C232.692,171.19,230.9,169.398,228.692,169.398z"/>
	</g>
</g>
<g>
	<g>
		<path d="M228.692,231.382h-54.236c-2.208,0-4,1.792-4,4c0,2.208,1.792,4,4,4h54.236c2.212,0,4-1.792,4-4
			C232.692,233.174,230.9,231.382,228.692,231.382z"/>
	</g>
</g>
<g>
	<g>
		<path d="M228.692,293.366h-54.236c-2.208,0-4,1.792-4,4s1.792,4,4,4h54.236c2.212,0,4-1.792,4-4S230.9,293.366,228.692,293.366z"
			/>
	</g>
</g>
<g>
	<g>
		<path d="M228.692,355.35h-54.236c-2.208,0-4,1.792-4,4s1.792,4,4,4h54.236c2.212,0,4-1.792,4-4S230.9,355.35,228.692,355.35z"/>
	</g>
</g>
<g>
	<g>
		<path d="M118.284,39.802c-7.544,0-13.684,6.148-13.684,13.704v34.876c0,7.556,6.136,13.704,13.684,13.704
			s13.684-6.148,13.684-13.704V53.506C131.968,45.95,125.828,39.802,118.284,39.802z M123.968,88.382
			c0,3.144-2.552,5.704-5.684,5.704c-3.132,0-5.684-2.56-5.684-5.704V53.506c0-3.144,2.548-5.704,5.684-5.704
			c3.132,0,5.684,2.556,5.684,5.704V88.382z"/>
	</g>
</g>
<g>
	<g>
		<path d="M381.716,39.802c-7.544,0-13.684,6.148-13.684,13.704v34.876c0,7.556,6.14,13.704,13.684,13.704
			c7.544,0,13.688-6.148,13.688-13.704V53.506C395.404,45.95,389.264,39.802,381.716,39.802z M387.404,88.382
			c0,3.144-2.552,5.704-5.688,5.704s-5.684-2.56-5.684-5.704V53.506c0-3.144,2.548-5.704,5.684-5.704s5.688,2.556,5.688,5.704
			V88.382z"/>
	</g>
</g>
<g>
	<g>
		<path d="M434.312,64.802h-23.536c-2.208,0-4,1.792-4,4s1.792,4,4,4h23.536c31.272,0,57.692,27.532,57.692,60.124v263.048
			c0,31.528-25.344,56.228-57.692,56.228H69.652C36.232,452.202,8,426.454,8,395.974V132.926c0-31.468,29.384-60.124,61.652-60.124
			h15.704c2.208,0,4-1.792,4-4s-1.792-4-4-4H69.652C33.196,64.802,0,97.27,0,132.926v263.048c0,34.816,31.9,64.228,69.652,64.228
			h364.656c36.836,0,65.692-28.212,65.696-64.228V132.926C500.004,95.998,469.92,64.802,434.312,64.802z"/>
	</g>
</g>
<g>
</g>
<g>
</g>
<g>
</g>
<g>
</g>
<g>
</g>
<g>
</g>
<g>
</g>
<g>
</g>
<g>
</g>
<g>
</g>
<g>
</g>
<g>
</g>
<g>
</g>
<g>
</g>
<g>
</g>
</svg>
