<?xml version="1.0" encoding="iso-8859-1"?>
<!-- Generator: Adobe Illustrator 19.0.0, SVG Export Plug-In . SVG Version: 6.00 Build 0)  -->
<svg version="1.1" id="Layer_1" xmlns="http://www.w3.org/2000/svg" xmlns:xlink="http://www.w3.org/1999/xlink" x="0px" y="0px"
	 viewBox="0 0 500 500" style="enable-background:new 0 0 500 500;" xml:space="preserve">
<g>
	<g>
		<path d="M273.428,171.808H66.476c-2.212,0-4,1.788-4,4c0,2.212,1.788,4,4,4h206.952c2.212,0,4-1.788,4-4
			C277.428,173.596,275.64,171.808,273.428,171.808z"/>
	</g>
</g>
<g>
	<g>
		<path d="M273.428,210.856H66.476c-2.212,0-4,1.788-4,4c0,2.212,1.788,4,4,4h206.952c2.212,0,4-1.788,4-4
			C277.428,212.644,275.64,210.856,273.428,210.856z"/>
	</g>
</g>
<g>
	<g>
		<path d="M273.428,249.908H66.476c-2.212,0-4,1.788-4,4c0,2.212,1.788,4,4,4h206.952c2.212,0,4-1.788,4-4
			C277.428,251.696,275.64,249.908,273.428,249.908z"/>
	</g>
</g>
<g>
	<g>
		<path d="M273.428,288.952H66.476c-2.212,0-4,1.788-4,4c0,2.212,1.788,4,4,4h206.952c2.212,0,4-1.788,4-4
			C277.428,290.74,275.64,288.952,273.428,288.952z"/>
	</g>
</g>
<g>
	<g>
		<path d="M371.048,328H226.572c-2.212,0-4,1.788-4,4c0,2.212,1.788,4,4,4h144.476c2.208,0,4-1.788,4-4
			C375.048,329.788,373.26,328,371.048,328z"/>
	</g>
</g>
<g>
	<g>
		<path d="M371.048,367.048H226.572c-2.212,0-4,1.788-4,4c0,2.212,1.788,4,4,4h144.476c2.208,0,4-1.788,4-4
			C375.048,368.836,373.26,367.048,371.048,367.048z"/>
	</g>
</g>
<g>
	<g>
		<path d="M371.048,406.092H226.572c-2.212,0-4,1.788-4,4c0,2.212,1.788,4,4,4h144.476c2.208,0,4-1.788,4-4
			C375.048,407.88,373.26,406.092,371.048,406.092z"/>
	</g>
</g>
<g>
	<g>
		<path d="M371.048,445.144H226.572c-2.212,0-4,1.788-4,4c0,2.212,1.788,4,4,4h144.476c2.208,0,4-1.788,4-4
			C375.048,446.932,373.26,445.144,371.048,445.144z"/>
	</g>
</g>
<g>
	<g>
		<path d="M371.048,171.808h-62.476c-2.212,0-4,1.788-4,4c0,2.212,1.788,4,4,4h62.476c2.208,0,4-1.788,4-4
			C375.048,173.596,373.26,171.808,371.048,171.808z"/>
	</g>
</g>
<g>
	<g>
		<path d="M371.048,210.856h-62.476c-2.212,0-4,1.788-4,4c0,2.212,1.788,4,4,4h62.476c2.208,0,4-1.788,4-4
			C375.048,212.644,373.26,210.856,371.048,210.856z"/>
	</g>
</g>
<g>
	<g>
		<path d="M371.048,249.908h-62.476c-2.212,0-4,1.788-4,4c0,2.212,1.788,4,4,4h62.476c2.208,0,4-1.788,4-4
			C375.048,251.696,373.26,249.908,371.048,249.908z"/>
	</g>
</g>
<g>
	<g>
		<path d="M371.048,288.952h-62.476c-2.212,0-4,1.788-4,4c0,2.212,1.788,4,4,4h62.476c2.208,0,4-1.788,4-4
			C375.048,290.74,373.26,288.952,371.048,288.952z"/>
	</g>
</g>
<g>
	<g>
		<path d="M441.332,492H58.664c-2.212,0-4,1.788-4,4c0,2.212,1.788,4,4,4h382.668c2.212,0,4-1.788,4-4
			C445.332,493.788,443.544,492,441.332,492z"/>
	</g>
</g>
<g>
	<g>
		<path d="M403.4,0H36.256c-6.168,0-12.828,4.24-12.828,11.096V464.76c0,2.212,1.788,4,4,4c2.212,0,4-1.788,4-4V11.096
			C31.428,9.352,34.02,8,36.256,8H403.4c1.3,0,2.692,0.236,2.692,3.096V464.76c0,2.212,1.788,4,4,4c2.212,0,4-1.788,4-4V11.096
			C414.092,4.46,409.796,0,403.4,0z"/>
	</g>
</g>
<g>
	<g>
		<path d="M371.048,46.856H66.476c-2.212,0-4,1.788-4,4v85.904c0,2.212,1.788,4,4,4h304.572c2.208,0,4-1.788,4-4V50.856
			C375.048,48.644,373.26,46.856,371.048,46.856z M70.476,132.76V54.856h296.572v77.904H70.476z"/>
	</g>
</g>
<g>
	<g>
		<path d="M183.616,328H66.476c-2.212,0-4,1.788-4,4v117.144c0,2.212,1.788,4,4,4h117.14c2.212,0,4-1.788,4-4V332
			C187.616,329.788,185.828,328,183.616,328z M179.616,445.144H70.476V336h109.14V445.144z"/>
	</g>
</g>
<g>
	<g>
		<path d="M58.664,492c-15.016,0-27.236-12.22-27.236-27.24c0-2.212-1.788-4-4-4c-2.212,0-4,1.788-4,4
			c0,19.432,15.808,35.24,35.236,35.24c2.212,0,4-1.788,4-4C62.664,493.788,60.876,492,58.664,492z"/>
	</g>
</g>
<g>
	<g>
		<path d="M472.572,288.952h-58.476c-2.212,0-4,1.788-4,4c0,2.212,1.788,4,4,4h54.476v167.096c0,15.152-12.476,27.952-27.24,27.952
			c-15.02,0-27.24-12.22-27.24-27.24c0-2.212-1.788-4-4-4c-2.212,0-4,1.788-4,4c0,19.432,15.812,35.24,35.24,35.24
			s35.24-16.128,35.24-35.956V292.952C476.572,290.74,474.784,288.952,472.572,288.952z"/>
	</g>
</g>
<g>
</g>
<g>
</g>
<g>
</g>
<g>
</g>
<g>
</g>
<g>
</g>
<g>
</g>
<g>
</g>
<g>
</g>
<g>
</g>
<g>
</g>
<g>
</g>
<g>
</g>
<g>
</g>
<g>
</g>
</svg>
