<?xml version="1.0" encoding="iso-8859-1"?>
<!-- Generator: Adobe Illustrator 19.0.0, SVG Export Plug-In . SVG Version: 6.00 Build 0)  -->
<svg version="1.1" id="Layer_1" xmlns="http://www.w3.org/2000/svg" xmlns:xlink="http://www.w3.org/1999/xlink" x="0px" y="0px"
	 viewBox="0 0 499.996 499.996" style="enable-background:new 0 0 499.996 499.996;" xml:space="preserve">
<g>
	<g>
		<path d="M249.958,156.068c-64.624,0-117.204,52.58-117.204,117.204c0,39.148,19.432,75.556,51.988,97.392
			c1.836,1.24,4.32,0.744,5.548-1.092c1.232-1.832,0.744-4.316-1.092-5.548c-30.332-20.348-48.44-54.276-48.44-90.752
			c0-60.216,48.984-109.204,109.2-109.204s109.204,48.988,109.204,109.204c0,36.632-18.228,70.64-48.768,90.968
			c-1.84,1.224-2.34,3.708-1.112,5.544c0.768,1.16,2.04,1.784,3.332,1.784c0.764,0,1.532-0.216,2.212-0.672
			c32.772-21.812,52.34-58.308,52.34-97.624C367.166,208.648,314.582,156.068,249.958,156.068z"/>
	</g>
</g>
<g>
	<g>
		<path d="M285.114,402.272h-70.22c-2.212,0-4,1.788-4,4v44.06c0,18.784,14.9,34.064,33.212,34.064h11.972
			c18.212,0,33.032-15.28,33.036-34.06v-44.064C289.114,404.06,287.326,402.272,285.114,402.272z M281.114,450.336
			c0,14.372-11.232,26.064-25.036,26.064h-11.972c-13.664,0-25.212-11.936-25.212-26.064v-40.064h62.22V450.336z"/>
	</g>
</g>
<g>
	<g>
		<path d="M190.53,365.044c-0.416-0.32-0.844-0.628-1.268-0.928c-1.804-1.28-4.308-0.844-5.576,0.956
			c-1.28,1.808-0.848,4.304,0.956,5.576c0.348,0.244,0.696,0.5,1.06,0.776c12.948,9.716,25.66,28.34,25.66,37.596
			c0,2.212,1.788,4,4,4c2.212,0,4-1.788,4-4C219.362,395.856,204.154,375.268,190.53,365.044z"/>
	</g>
</g>
<g>
	<g>
		<path d="M316.726,364.572c-1.288-1.8-3.784-2.212-5.58-0.928c-0.424,0.304-0.852,0.612-1.228,0.9
			c-13.648,10.244-28.86,30.828-28.86,43.996c0,2.212,1.788,4,4,4c2.208,0,4-1.788,4.004-4.004c0-9.256,12.712-27.88,25.704-37.628
			c0.336-0.256,0.688-0.508,1.032-0.756C317.594,368.868,318.01,366.368,316.726,364.572z"/>
	</g>
</g>
<g>
	<g>
		<path d="M265.606,476.392c-2.212,0-4,1.788-4,4v9.9c0,0.98-0.648,1.704-0.82,1.704h-17.62c-0.204,0-0.868-0.728-0.868-1.704v-9.9
			c0-2.212-1.788-4-4-4c-2.212,0-4,1.788-4,4v9.9c0,5.26,4.064,9.704,8.868,9.704h17.62c4.864,0,8.82-4.348,8.82-9.704v-9.9
			C269.606,478.18,267.818,476.392,265.606,476.392z"/>
	</g>
</g>
<g>
	<g>
		<path d="M240.138,404.612L207.71,279.78c-0.556-2.144-2.76-3.432-4.876-2.868c-2.14,0.556-3.424,2.74-2.868,4.876l32.428,124.832
			c0.468,1.804,2.092,2.996,3.868,2.996c0.336,0,0.672-0.04,1.008-0.128C239.41,408.932,240.694,406.748,240.138,404.612z"/>
	</g>
</g>
<g>
	<g>
		<path d="M297.366,276.912c-2.12-0.56-4.32,0.728-4.876,2.868l-32.428,124.832c-0.552,2.136,0.728,4.32,2.868,4.876
			c0.336,0.088,0.672,0.128,1.008,0.128c1.78,0,3.4-1.196,3.868-2.996l32.428-124.832
			C300.786,279.652,299.506,277.468,297.366,276.912z"/>
	</g>
</g>
<g>
	<g>
		<path d="M292.51,284.724c-5.656,0-8.516,4.132-10.408,6.868c-1.832,2.648-2.556,3.416-3.824,3.416s-1.996-0.768-3.828-3.416
			c-1.892-2.736-4.752-6.868-10.404-6.868c-5.656,0-8.516,4.132-10.408,6.868c-1.832,2.648-2.556,3.416-3.824,3.416
			c-1.264,0-1.984-0.768-3.812-3.416c-1.892-2.736-4.748-6.868-10.396-6.868c-5.652,0-8.508,4.132-10.4,6.868
			c-1.832,2.648-2.556,3.416-3.82,3.416c-1.264,0-1.988-0.768-3.82-3.416c-1.888-2.736-4.744-6.868-10.392-6.868
			c-2.212,0-4,1.788-4,4c0,2.212,1.788,4,4,4c1.26,0,1.984,0.772,3.808,3.416c1.892,2.736,4.752,6.872,10.404,6.872
			c5.652,0,8.508-4.132,10.4-6.868c1.832-2.648,2.556-3.416,3.82-3.416c1.26,0,1.984,0.772,3.808,3.416
			c1.892,2.74,4.748,6.872,10.4,6.872s8.512-4.132,10.404-6.868c1.832-2.648,2.56-3.416,3.828-3.416s1.992,0.768,3.824,3.416
			c1.892,2.736,4.752,6.868,10.408,6.868c5.652,0,8.512-4.132,10.404-6.876c1.832-2.648,2.56-3.416,3.828-3.416c2.212,0,4-1.788,4-4
			C296.51,286.512,294.722,284.724,292.51,284.724z"/>
	</g>
</g>
<g>
	<g>
		<path d="M305.426,190.844c-1.824-1.236-4.316-0.756-5.552,1.076c-1.236,1.828-0.756,4.316,1.076,5.552
			c25.232,17.048,40.3,45.384,40.3,75.8c0,2.212,1.788,4,4,4c2.212,0,4-1.792,4-4.004
			C349.25,240.196,332.866,209.384,305.426,190.844z"/>
	</g>
</g>
<g>
	<g>
		<path d="M287.098,181.084c-11.836-4.792-24.372-7.22-37.252-7.22c-2.212,0-4,1.788-4,4c0,2.212,1.788,4,4,4
			c11.844,0,23.368,2.228,34.252,6.632c0.492,0.2,1,0.292,1.5,0.292c1.584,0,3.08-0.948,3.708-2.496
			C290.134,184.244,289.146,181.912,287.098,181.084z"/>
	</g>
</g>
<g>
	<g>
		<path d="M261.706,425.68h-46.812c-2.212,0-4,1.788-4,4c0,2.212,1.788,4,4,4h46.812c2.212,0,4-1.788,4-4
			C265.706,427.468,263.918,425.68,261.706,425.68z"/>
	</g>
</g>
<g>
	<g>
		<path d="M261.706,445.184h-46.812c-2.212,0-4,1.788-4,4c0,2.212,1.788,4,4,4h46.812c2.212,0,4-1.788,4-4
			C265.706,446.972,263.918,445.184,261.706,445.184z"/>
	</g>
</g>
<g>
	<g>
		<path d="M285.11,425.68h-7.8c-2.212,0-4,1.788-4,4c0,2.212,1.788,4,4,4h7.8c2.212,0,4-1.788,4-4
			C289.11,427.468,287.322,425.68,285.11,425.68z"/>
	</g>
</g>
<g>
	<g>
		<path d="M285.11,445.184h-7.8c-2.212,0-4,1.788-4,4c0,2.212,1.788,4,4,4h7.8c2.212,0,4-1.788,4-4
			C289.11,446.972,287.322,445.184,285.11,445.184z"/>
	</g>
</g>
<g>
	<g>
		<path d="M281.21,460.792h-62.42c-2.212,0-4,1.788-4,4c0,2.212,1.788,4,4,4h62.424c2.208,0,3.996-1.788,3.996-4
			C285.21,462.58,283.422,460.792,281.21,460.792z"/>
	</g>
</g>
<g>
	<g>
		<path d="M484.806,133.18C435.654,51.032,345.75,0,250.17,0C154.322,0,64.282,51.26,15.186,133.768
			c-1.128,1.9-0.508,4.356,1.392,5.484c0.644,0.384,1.348,0.564,2.044,0.564c1.364,0,2.696-0.696,3.444-1.952
			C69.722,57.76,157.126,8,250.17,8c92.78,0,180.06,49.54,227.768,129.288c1.136,1.892,3.588,2.508,5.488,1.38
			C485.322,137.532,485.938,135.08,484.806,133.18z"/>
	</g>
</g>
<g>
	<g>
		<path d="M456.042,162.188C415.086,86.436,336.206,39.376,250.17,39.376c-86.304,0-165.312,47.292-206.184,123.42
			c-1.048,1.948-0.316,4.372,1.632,5.416c0.604,0.324,1.252,0.476,1.888,0.476c1.424,0,2.804-0.764,3.532-2.108
			C90.514,93.052,166.818,47.376,250.174,47.376c83.088,0,159.28,45.452,198.832,118.616c1.044,1.944,3.476,2.66,5.42,1.616
			C456.366,166.56,457.094,164.132,456.042,162.188z"/>
	</g>
</g>
<g>
	<g>
		<path d="M427.33,191.224C395.43,122.46,325.894,78.028,250.17,78.028c-76.024,0-145.676,44.684-177.448,113.832
			c-0.928,2.008-0.044,4.384,1.96,5.304c0.544,0.252,1.108,0.368,1.668,0.368c1.516,0,2.964-0.864,3.636-2.328
			C110.462,128.88,177.258,86.028,250.17,86.028c72.624,0,139.316,42.616,169.904,108.564c0.928,2,3.3,2.884,5.312,1.944
			C427.39,195.608,428.258,193.228,427.33,191.224z"/>
	</g>
</g>
<g>
	<g>
		<path d="M397.414,221.652c-21.892-62.448-81.064-104.404-147.244-104.404c-66.504,0-125.772,42.236-147.48,105.1
			c-0.724,2.084,0.388,4.36,2.476,5.084c0.428,0.148,0.872,0.22,1.304,0.22c1.66,0,3.212-1.036,3.788-2.692
			c20.592-59.64,76.824-99.712,139.916-99.712c62.784,0,118.928,39.804,139.696,99.052c0.724,2.08,3.008,3.2,5.096,2.448
			C397.046,226.02,398.146,223.736,397.414,221.652z"/>
	</g>
</g>
<g>
</g>
<g>
</g>
<g>
</g>
<g>
</g>
<g>
</g>
<g>
</g>
<g>
</g>
<g>
</g>
<g>
</g>
<g>
</g>
<g>
</g>
<g>
</g>
<g>
</g>
<g>
</g>
<g>
</g>
</svg>
