<?xml version="1.0" encoding="iso-8859-1"?>
<!-- Generator: Adobe Illustrator 19.0.0, SVG Export Plug-In . SVG Version: 6.00 Build 0)  -->
<svg version="1.1" id="Layer_1" xmlns="http://www.w3.org/2000/svg" xmlns:xlink="http://www.w3.org/1999/xlink" x="0px" y="0px"
	 viewBox="0 0 512.121 512.121" style="enable-background:new 0 0 512.121 512.121;" xml:space="preserve">
<g>
	<g>
		<path d="M468.062,75.976H44.06C19.772,75.976,0,95.748,0,120.036v272.049c0,24.288,19.772,44.06,44.06,44.06h424.001
			c24.288,0,44.06-19.772,44.06-44.06V120.036C512,95.748,492.35,75.976,468.062,75.976z M44.06,84.031h26.729l180.878,146.826
			c0.732,0.61,1.587,0.854,2.563,0.854c0.976,0,1.831-0.244,2.563-0.854l24.532-19.894c1.709-1.342,1.953-3.905,0.61-5.614
			c-1.342-1.709-3.905-1.953-5.614-0.61l-21.969,17.819L83.482,84.031h341.496l-117.535,95.443c-1.709,1.342-1.953,3.905-0.61,5.614
			c0.732,0.976,1.953,1.465,3.051,1.465c0.854,0,1.831-0.244,2.563-0.854L437.549,84.031h30.391c6.956,0,13.548,2.075,19.04,5.492
			L254.231,278.091L22.945,90.866C28.926,86.595,36.127,84.031,44.06,84.031z M504.067,392.085c0,9.398-3.661,18.063-9.642,24.41
			L315.377,271.623c-1.709-1.342-4.271-1.098-5.614,0.61c-1.343,1.708-1.098,4.271,0.61,5.614l177.949,144.019
			c-5.736,3.905-12.693,6.224-20.26,6.224H44.06c-8.422,0-16.233-2.929-22.457-7.812l176.484-142.432
			c1.709-1.342,1.953-3.905,0.61-5.614c-1.343-1.709-3.905-1.953-5.614-0.61L15.866,414.543c-4.882-6.102-7.934-13.914-7.934-22.457
			V120.036c0-9.032,3.417-17.331,8.91-23.678L251.545,286.39c0.732,0.61,1.587,0.854,2.563,0.854s1.831-0.244,2.563-0.854
			L493.449,94.649c6.468,6.468,10.497,15.5,10.497,25.387v272.049L504.067,392.085L504.067,392.085z"/>
	</g>
</g>
<g>
</g>
<g>
</g>
<g>
</g>
<g>
</g>
<g>
</g>
<g>
</g>
<g>
</g>
<g>
</g>
<g>
</g>
<g>
</g>
<g>
</g>
<g>
</g>
<g>
</g>
<g>
</g>
<g>
</g>
</svg>
