<?xml version="1.0" encoding="iso-8859-1"?>
<!-- Generator: Adobe Illustrator 19.0.0, SVG Export Plug-In . SVG Version: 6.00 Build 0)  -->
<svg version="1.1" id="Layer_1" xmlns="http://www.w3.org/2000/svg" xmlns:xlink="http://www.w3.org/1999/xlink" x="0px" y="0px"
	 viewBox="0 0 512.092 512.092" style="enable-background:new 0 0 512.092 512.092;" xml:space="preserve">
<g>
	<g>
		<path d="M510.767,432.149l-29.292-29.292c-0.488-39.545-32.587-71.644-72.132-72.132l-27.584-27.584
			c-1.587-1.587-4.149-1.587-5.614,0l-46.379,46.135c-0.732,0.732-1.22,1.709-1.22,2.807s0.366,2.075,1.22,2.807l11.961,11.839
			l-27.339,27.339c-61.513-48.454-148.291-135.232-196.623-196.623l27.217-27.217l11.839,11.839c1.587,1.587,4.149,1.587,5.614,0
			l46.257-46.257c0.732-0.732,1.22-1.709,1.22-2.807c0-1.098-0.366-2.075-1.22-2.807l-28.56-28.56
			c0-40.155-32.709-72.864-72.864-72.864L79.687,1.19c-1.587-1.587-4.149-1.587-5.614,0L27.815,47.447
			c-0.732,0.732-1.22,1.709-1.22,2.807c0,1.098,0.366,2.075,1.22,2.807L39.41,64.656c-12.938,21.358-31.123,51.139-33.198,54.19
			c-6.834,7.079-7.933,18.063-2.685,26.363C87.864,278.244,234.08,424.338,367.114,508.797c3.539,2.197,7.445,3.295,11.473,3.295
			c5.492,0,10.863-2.075,15.012-5.98c2.929-2.075,32.465-20.504,53.58-33.686l11.595,11.595c1.587,1.587,4.149,1.587,5.614,0
			l46.257-46.257c0.732-0.732,1.22-1.709,1.22-2.807C511.866,433.858,511.5,432.881,510.767,432.149z M472.688,394.07
			l-54.801-54.679C446.202,343.54,468.538,365.876,472.688,394.07z M171.713,93.094L116.058,37.44
			C144.861,41.345,167.806,64.29,171.713,93.094z M461.703,475.477l-10.985-10.985c0,0,0,0-0.122-0.122l-47.966-47.966
			c-1.587-1.587-4.149-1.587-5.614,0c-1.587,1.587-1.587,4.149,0,5.614l44.304,44.304c-52.115,32.465-52.847,33.198-53.214,33.686
			c-4.394,4.393-11.351,5.126-16.599,1.831c-132.18-83.604-277.297-228.722-361.145-360.78c-3.295-5.248-2.563-12.205,1.831-16.599
			c0.366-0.366,1.22-1.22,33.075-53.824l4.027,4.027c0.732,0.732,1.831,1.22,2.807,1.22s2.075-0.366,2.807-1.22
			c1.587-1.587,1.587-4.149,0-5.614l-8.788-8.788l-9.886-9.885L76.757,9.856l123.514,123.271l-40.521,40.521l-11.839-11.839
			l-46.135-46.013c-1.587-1.587-4.149-1.587-5.614,0c-1.587,1.587-1.587,4.149,0,5.614l43.206,43.206l-29.78,29.658
			c-1.465,1.465-1.587,3.661-0.366,5.248c48.942,62.856,139.991,153.905,202.969,203.091c1.587,1.22,3.905,1.098,5.248-0.366
			l29.902-29.902l4.149,4.149c0.732,0.732,1.831,1.22,2.807,1.22s2.075-0.366,2.807-1.22c1.587-1.587,1.587-4.149,0-5.614
			l-6.835-6.834c0,0,0,0,0-0.122l-11.961-11.839l40.521-40.521l123.393,123.393L461.703,475.477z"/>
	</g>
</g>
<g>
	<g>
		<path d="M480.255,35.975H287.416c-16.721,0-35.272,13.426-35.272,31.489v108.991c-0.001,18.185,18.673,31.611,35.272,31.611h20.26
			v44.548c0,1.587,0.976,3.051,2.441,3.661c0.488,0.244,0.976,0.244,1.587,0.244c1.098,0,2.075-0.366,2.807-1.22l47.355-47.355
			h118.389c16.355,0,27.828-12.937,27.828-31.489V67.464C508.083,48.912,496.611,35.975,480.255,35.975z M500.149,176.577
			c0,11.717-6.102,23.556-19.772,23.556H360.28c-1.098,0-2.075,0.366-2.807,1.22l-41.741,41.741v-38.934
			c0-1.098-0.366-2.075-1.22-2.807c-0.732-0.732-1.709-1.22-2.807-1.22h-24.288c-12.693,0-27.339-10.253-27.339-23.556
			l-0.002-108.991c0-13.304,14.646-23.556,27.339-23.556h192.961c13.67,0,19.772,11.839,19.772,23.556V176.577z"/>
	</g>
</g>
<g>
	<g>
		<path d="M468.172,104.079H292.175c-2.197,0-4.027,1.831-4.027,4.027c0,2.197,1.708,4.027,4.027,4.027h175.996
			c2.197,0,4.027-1.831,4.027-4.027C472.199,105.909,470.368,104.079,468.172,104.079z"/>
	</g>
</g>
<g>
	<g>
		<path d="M404.096,136.057H292.053c-2.197,0-4.027,1.831-4.027,4.027c0.122,2.196,1.83,4.027,4.149,4.027h111.92
			c2.197,0,4.027-1.831,4.027-4.027C408.123,137.887,406.292,136.057,404.096,136.057z"/>
	</g>
</g>
<g>
	<g>
		<path d="M472.199,136.056h-44.06c-2.197,0-4.027,1.831-4.027,4.027c0,2.196,1.831,4.027,4.027,4.027h44.06
			c2.197,0,4.027-1.831,4.027-4.027C476.226,137.887,474.395,136.056,472.199,136.056z"/>
	</g>
</g>
<g>
	<g>
		<path d="M468.172,71.98H360.158c-2.197,0-4.027,1.831-4.027,4.027s1.83,4.027,4.027,4.027h108.014
			c2.197,0,4.027-1.831,4.027-4.027S470.368,71.98,468.172,71.98z"/>
	</g>
</g>
<g>
	<g>
		<path d="M336.235,71.98h-44.06c-2.197,0-4.027,1.831-4.027,4.027s1.708,4.027,4.027,4.027h44.06c2.197,0,4.027-1.831,4.027-4.027
			S338.431,71.98,336.235,71.98z"/>
	</g>
</g>
<g>
	<g>
		<path d="M468.172,168.033h-172.09c-2.197,0-4.027,1.831-4.027,4.027c0,2.196,1.831,4.027,4.027,4.027H468.05
			c2.197,0,4.027-1.831,4.027-4.027C472.199,169.863,470.369,168.033,468.172,168.033z"/>
	</g>
</g>
<g>
</g>
<g>
</g>
<g>
</g>
<g>
</g>
<g>
</g>
<g>
</g>
<g>
</g>
<g>
</g>
<g>
</g>
<g>
</g>
<g>
</g>
<g>
</g>
<g>
</g>
<g>
</g>
<g>
</g>
</svg>
