<?xml version="1.0" encoding="iso-8859-1"?>
<!-- Generator: Adobe Illustrator 19.0.0, SVG Export Plug-In . SVG Version: 6.00 Build 0)  -->
<svg version="1.1" id="Layer_1" xmlns="http://www.w3.org/2000/svg" xmlns:xlink="http://www.w3.org/1999/xlink" x="0px" y="0px"
	 viewBox="0 0 357.788 357.788" style="enable-background:new 0 0 357.788 357.788;" xml:space="preserve">
<g>
	<g>
		<path d="M332.331,28.081H25.372C11.267,28.081,0,39.348,0,53.195v208.567c0,13.847,11.525,25.63,25.372,25.63h100.112v25.372
			h-19.696c-1.72,0-2.838,1.118-2.838,2.838v11.267c0,1.72,1.118,2.838,2.838,2.838h146.556c1.72,0,2.838-1.118,2.838-2.838v-11.267
			c0-1.72-1.118-2.838-2.838-2.838h-19.696v-25.372h99.768c13.847,0,25.372-11.869,25.372-25.63V53.195
			C357.703,39.348,346.437,28.081,332.331,28.081z M5.849,53.195c0-10.751,8.773-19.437,19.781-19.437h306.959
			c11.009,0,19.696,8.773,19.696,19.438v194.806H5.849V53.195z M249.42,318.441v5.677H108.455v-5.677h95.812
			c1.72,0,2.838-1.118,2.838-2.838c0-1.72-1.118-2.838-2.838-2.838h-73.278v-25.372H226.8v28.21h0.086v-0.001
			c0,1.72,1.118,2.838,2.838,2.838H249.42z M352.37,261.762c-0.085,10.751-9.03,20.04-19.781,20.04H25.63
			c-10.751,0-19.696-9.03-19.696-20.04v-8.171H352.37V261.762z"/>
	</g>
</g>
<g>
	<g>
		<path d="M339.642,44.939h-14.105c-1.72,0-2.838,1.118-2.838,2.838c0,1.72,1.118,2.838,2.838,2.838h11.267v180.443h-62.871
			c0-0.688-0.258-1.376-0.86-1.978l-30.189-30.189c-1.118-1.118-2.838-1.118-3.956,0c-1.118,1.118-1.118,2.838,0,3.956l28.21,28.21
			H21.072V50.615h96.414l42.832,42.832c0.602,0.602,1.118,0.86,1.978,0.86c0.602,0,1.376-0.258,1.978-0.86
			c1.118-1.118,1.118-2.838,0-3.956l-38.875-38.875h166.338c1.72,0,2.838-1.118,2.838-2.838c0-1.72-1.118-2.838-2.838-2.838H118.69
			H18.32c-1.72,0-2.838,1.118-2.838,2.838V233.81c0,1.72,1.118,2.838,2.838,2.838h321.323c1.72,0,2.838-1.118,2.838-2.838V47.777
			C342.48,46.057,341.362,44.939,339.642,44.939z"/>
	</g>
</g>
<g>
	<g>
		<path d="M205.987,131.548l-27.866-27.867c-1.118-1.118-2.838-1.118-3.956,0c-1.118,1.118-1.118,2.838,0,3.956l27.866,27.867
			c0.602,0.516,1.204,0.86,1.978,0.86c0.86,0,1.72-0.258,1.978-0.86C207.105,134.386,207.105,132.666,205.987,131.548z"/>
	</g>
</g>
<g>
	<g>
		<path d="M231.445,187.366l-81.191-81.191c-1.204-1.118-2.839-1.118-3.956,0c-1.118,1.118-1.118,2.838,0,3.956l81.191,81.191
			c0.602,0.602,1.118,0.86,1.978,0.86s1.376-0.258,1.978-0.86C232.564,190.204,232.564,188.484,231.445,187.366z"/>
	</g>
</g>
<g>
	<g>
		<path d="M178.981,258.666c-4.816,0-8.429,3.956-8.429,8.429c0,4.817,3.956,8.429,8.429,8.429s8.429-3.698,8.429-8.429
			S183.711,258.666,178.981,258.666z M178.981,270.191c-1.72,0-2.838-1.118-2.838-2.838c0-1.72,1.376-2.838,2.838-2.838
			c1.376,0,2.838,1.118,2.838,2.838C181.733,269.073,180.615,270.191,178.981,270.191z"/>
	</g>
</g>
<g>
</g>
<g>
</g>
<g>
</g>
<g>
</g>
<g>
</g>
<g>
</g>
<g>
</g>
<g>
</g>
<g>
</g>
<g>
</g>
<g>
</g>
<g>
</g>
<g>
</g>
<g>
</g>
<g>
</g>
</svg>
