<svg xmlns="http://www.w3.org/2000/svg" width="63.221" height="57.062" viewBox="0 0 63.221 57.062"><defs><style>.a{fill:#B6A103;}</style></defs><path class="a" d="M19.588,24.855H52.3a10.6,10.6,0,0,0-2.4,5.06H20.726v3.717H49.9a10.6,10.6,0,0,0,2.4,5.06H19.588a6.919,6.919,0,0,1,0-13.837ZM30.337,81.917,25.248,79.4l-5.089,2.515V68.742H30.337ZM34.055,73.8v-5.06H60.819a10.6,10.6,0,0,0,2.4,5.06Zm26.765-8.777H8.056v3.717h8.385V73.8H6.919a6.919,6.919,0,1,1,0-13.837h56.3A10.6,10.6,0,0,0,60.819,65.024Zm0-17.555H8.056v3.717H60.819a10.6,10.6,0,0,0,2.4,5.06H6.919a6.919,6.919,0,1,1,0-13.837h56.3A10.6,10.6,0,0,0,60.819,47.47Z" transform="translate(0 -24.855)"/></svg>