<svg xmlns="http://www.w3.org/2000/svg" width="57.243" height="57.243" viewBox="0 0 57.243 57.243"><defs><style>.a{fill:#B6A103;}</style></defs><path class="a" d="M177.59,139.057l7.906-23.717a1.677,1.677,0,0,0-3.182-1.061L174.408,138a1.677,1.677,0,1,0,3.182,1.061Z" transform="translate(-154.832 -100.483)"/><path class="a" d="M269.564,199.265a5.031,5.031,0,1,0-5.031-5.031A5.037,5.037,0,0,0,269.564,199.265Zm0-6.708a1.677,1.677,0,1,1-1.677,1.677A1.679,1.679,0,0,1,269.564,192.557Z" transform="translate(-234.957 -168.05)"/><path class="a" d="M99.858,189.2a5.031,5.031,0,1,0,5.031,5.031A5.037,5.037,0,0,0,99.858,189.2Zm0,6.708a1.677,1.677,0,1,1,1.677-1.677A1.679,1.679,0,0,1,99.858,195.911Z" transform="translate(-84.225 -168.05)"/><path class="a" d="M56.908,20.8,51.06,13l.228-1.6a1.677,1.677,0,0,0-.474-1.423L47.256,6.421l3.557-3.558A1.677,1.677,0,0,0,48.442.491L44.885,4.049,41.327.491A1.679,1.679,0,0,0,39.9.017L23.3,2.389a1.677,1.677,0,0,0-.949.474L1.8,23.418a6.156,6.156,0,0,0,0,8.7L19.191,49.507a6.134,6.134,0,0,0,1.157.908v.68A6.156,6.156,0,0,0,26.5,57.244h24.6a6.156,6.156,0,0,0,6.149-6.149V21.8a1.677,1.677,0,0,0-.335-1.006ZM4.17,29.742a2.8,2.8,0,0,1,0-3.953L24.33,5.63,39.548,3.456l2.965,2.965L40.141,8.792,38.955,7.607a1.677,1.677,0,1,0-2.372,2.372l4.743,4.743A1.677,1.677,0,0,0,43.7,12.35l-1.186-1.186,2.372-2.372,2.965,2.965L45.675,26.976,25.515,47.135a2.8,2.8,0,0,1-3.953,0ZM53.889,51.094a2.8,2.8,0,0,1-2.8,2.8H26.5A2.8,2.8,0,0,1,23.711,51.3a6.125,6.125,0,0,0,4.176-1.794L48.442,28.952A1.677,1.677,0,0,0,48.916,28l1.473-10.309,3.5,4.667Z" transform="translate(0 0)"/></svg>