<svg xmlns="http://www.w3.org/2000/svg" width="15.385" height="15.385" viewBox="0 0 15.385 15.385"><defs><style>.a{fill:#fff;}</style></defs><path class="a" d="M19.03,15.184a9.71,9.71,0,0,1-3.051-.487.872.872,0,0,0-.872.205l-1.88,1.88A12.859,12.859,0,0,1,7.594,11.15l1.88-1.889a.821.821,0,0,0,.214-.855A9.71,9.71,0,0,1,9.2,5.355.857.857,0,0,0,8.346,4.5H5.355a.857.857,0,0,0-.855.855,14.529,14.529,0,0,0,14.53,14.53.857.857,0,0,0,.855-.855V16.039A.857.857,0,0,0,19.03,15.184Zm-.855-2.992h1.709A7.693,7.693,0,0,0,12.192,4.5V6.209A5.979,5.979,0,0,1,18.175,12.192Zm-3.419,0h1.709a4.275,4.275,0,0,0-4.274-4.274V9.628A2.561,2.561,0,0,1,14.757,12.192Z" transform="translate(-4.5 -4.5)"/></svg>