<svg xmlns="http://www.w3.org/2000/svg" width="81.777" height="57.124" viewBox="0 0 81.777 57.124"><defs><style>.a{fill:#B6A103;}</style></defs><path class="a" d="M19.233,8.571H4.952a2.387,2.387,0,0,0-2.38,2.38V63.315a2.387,2.387,0,0,0,2.38,2.38H19.233a2.387,2.387,0,0,0,2.38-2.38V10.952a2.387,2.387,0,0,0-2.38-2.38Zm-2.38,14.281H7.332v-4.76h9.521ZM43.034,8.571H28.753a2.387,2.387,0,0,0-2.38,2.38V63.315a2.387,2.387,0,0,0,2.38,2.38H43.034a2.387,2.387,0,0,0,2.38-2.38V10.952a2.387,2.387,0,0,0-2.38-2.38Zm-2.38,14.281H31.133v-4.76h9.521Zm18.825-10.6L46.725,18.678a2.387,2.387,0,0,0-1.055,3.2l21.42,42.512a2.387,2.387,0,0,0,3.2,1.055l12.754-6.426a2.387,2.387,0,0,0,1.055-3.2L62.675,13.306a2.387,2.387,0,0,0-3.2-1.055ZM71.6,63.315a2.38,2.38,0,1,1-2.38-2.38A2.38,2.38,0,0,1,71.6,63.315Z" transform="translate(-2.571 -8.571)"/></svg>