<svg xmlns="http://www.w3.org/2000/svg" width="35.655" height="35.48" viewBox="0 0 35.655 35.48"><defs><style>.a{fill:none;stroke:#c1b03a;stroke-width:3px;}</style></defs><path class="a" d="M32.032,28.081l-6.324-6.324a1.521,1.521,0,0,0-1.078-.444H23.6A13.188,13.188,0,1,0,21.313,23.6V24.63a1.521,1.521,0,0,0,.444,1.078l6.324,6.324a1.516,1.516,0,0,0,2.15,0l1.8-1.8a1.529,1.529,0,0,0,.006-2.157ZM13.194,21.313a8.119,8.119,0,1,1,8.119-8.119A8.114,8.114,0,0,1,13.194,21.313Z" transform="translate(1.5 1.5)"/></svg>