<svg xmlns="http://www.w3.org/2000/svg" width="53.425" height="56.986" viewBox="0 0 53.425 56.986"><defs><style>.a{fill:#B6A103;}</style></defs><path class="a" d="M20.379,23.3H27.5v7.123H20.379Zm10.685,0h7.123v7.123H31.064Zm10.685,0h7.123v7.123H41.749ZM9.694,44.668h7.123v7.123H9.694Zm10.685,0H27.5v7.123H20.379Zm10.685,0h7.123v7.123H31.064ZM20.379,33.983H27.5v7.123H20.379Zm10.685,0h7.123v7.123H31.064Zm10.685,0h7.123v7.123H41.749Zm-32.055,0h7.123v7.123H9.694ZM48.872,1.928V5.49H41.749V1.928H16.817V5.49H9.694V1.928H2.571V58.914H56V1.928H48.872Zm3.562,53.425H6.132V16.175h46.3Z" transform="translate(-2.571 -1.928)"/></svg>