<svg xmlns="http://www.w3.org/2000/svg" width="56.924" height="56.924" viewBox="0 0 56.924 56.924"><defs><style>.a{fill:#B6A103;}</style></defs><path class="a" d="M41.9,32.366a.237.237,0,0,1,.237-.237h1.66v2.846h1.9V23.59h40.8a.949.949,0,0,0,.949-.949V16.949A.949.949,0,0,0,86.488,16H81.744v1.9h3.795v3.795H45.692V17.9H79.847V16h-35.1a.949.949,0,0,0-.949.949V30.231h-1.66A2.137,2.137,0,0,0,40,32.366v2.609h1.9Z" transform="translate(-37.154 -16)"/><path class="a" d="M89.334,239.18H41.9v-3.795H40v9.25a2.137,2.137,0,0,0,2.135,2.135h3.558v-1.9H42.135a.237.237,0,0,1-.237-.237v-3.558H89.334v3.558a.237.237,0,0,1-.237.237H47.59v1.9H59.923v1.73a2.6,2.6,0,0,1-2.18,2.573l-.738.123a3.31,3.31,0,0,0-2.775,3.275v.837a.949.949,0,0,0,.949.949H76.052a.949.949,0,0,0,.949-.949v-.837a3.31,3.31,0,0,0-2.775-3.275l-.738-.123a2.6,2.6,0,0,1-2.18-2.574v-1.73H89.1a2.137,2.137,0,0,0,2.135-2.135V224h-1.9ZM73.177,252.945l.738.123A1.418,1.418,0,0,1,75.1,254.36H56.133a1.418,1.418,0,0,1,1.185-1.292l.738-.123a4.492,4.492,0,0,0,3.766-4.445v-1.73h7.59v1.73a4.492,4.492,0,0,0,3.766,4.445Z" transform="translate(-37.154 -199.333)"/><path class="a" d="M72,236.334a.949.949,0,0,0,.949.949h41.744a.949.949,0,0,0,.949-.949V224h-1.9v11.385H72Z" transform="translate(-65.359 -199.333)"/><path class="a" d="M178.436,112a10.436,10.436,0,1,0,10.436,10.436A10.436,10.436,0,0,0,178.436,112Zm0,14.231a3.795,3.795,0,1,1,3.795-3.795A3.795,3.795,0,0,1,178.436,126.231Zm-.949-12.281v2.873a5.707,5.707,0,0,0-4.665,4.665H169.95A8.556,8.556,0,0,1,177.487,113.95Zm-7.538,9.435h2.873a5.707,5.707,0,0,0,4.665,4.665v2.873a8.556,8.556,0,0,1-7.538-7.538Zm9.435,7.538v-2.873a5.693,5.693,0,0,0,0-11.227V113.95a8.539,8.539,0,0,1,0,16.973Z" transform="translate(-149.974 -100.615)"/><path class="a" d="M118.919,99.517l1.342-1.342-1.9-1.9a.949.949,0,0,0-.671-.278H112v1.9h5.3Z" transform="translate(-100.615 -86.513)"/><path class="a" d="M112,128h4.744v1.9H112Z" transform="translate(-100.615 -114.718)"/><path class="a" d="M331.685,274.343l-1.342,1.342,1.9,1.9a.949.949,0,0,0,.671.278H338.6v-1.9h-5.3Z" transform="translate(-293.064 -243.706)"/><path class="a" d="M360,256h4.744v1.9H360Z" transform="translate(-319.204 -227.538)"/><path class="a" d="M104,40h1.9v1.9H104Z" transform="translate(-93.564 -37.154)"/><path class="a" d="M136,40h1.9v1.9H136Z" transform="translate(-121.769 -37.154)"/><path class="a" d="M168,40h1.9v1.9H168Z" transform="translate(-149.974 -37.154)"/><path class="a" d="M392,40h1.9v1.9H392Z" transform="translate(-347.409 -37.154)"/><path class="a" d="M31.18,204.334V202.91l3.415-2.562a.949.949,0,0,0-.236-1.647l-3.179-1.192v-4.561a.949.949,0,0,0-.949-.949H16.949a.949.949,0,0,0-.949.949v11.385a.949.949,0,0,0,.949.949H30.231A.949.949,0,0,0,31.18,204.334Zm-1.9-1.9v.949H17.9V193.9H29.282v4.269a.949.949,0,0,0,.616.888l2.173.815-2.409,1.807A.949.949,0,0,0,29.282,202.436Z" transform="translate(-16 -171.128)"/><path class="a" d="M48,248h1.9v2.846H48Z" transform="translate(-44.205 -220.487)"/><path class="a" d="M72,224h1.9v5.692H72Z" transform="translate(-65.359 -199.333)"/><path class="a" d="M96,240h1.9v3.795H96Z" transform="translate(-86.513 -213.435)"/><path class="a" d="M354.026,96H340.743a.949.949,0,0,0-.949.949v1.423l-3.415,2.562a.949.949,0,0,0,.236,1.647l3.179,1.192v4.561a.949.949,0,0,0,.949.949h13.282a.949.949,0,0,0,.949-.949V96.949A.949.949,0,0,0,354.026,96Zm-.949,11.385H341.692v-4.269a.949.949,0,0,0-.616-.888l-2.173-.815,2.409-1.807a.949.949,0,0,0,.379-.759V97.9h11.385Z" transform="translate(-298.05 -86.513)"/><path class="a" d="M397.86,127.008l1.227,1.227a.949.949,0,0,0,1.43-.1l2.846-3.795-1.518-1.138-2.19,2.92L398.531,125a.949.949,0,0,0-1.342,0l-2.846,2.846,1.342,1.342Z" transform="translate(-349.475 -110.487)"/></svg>