<?xml version="1.0" encoding="iso-8859-1"?>
<!-- Generator: Adobe Illustrator 16.0.0, SVG Export Plug-In . SVG Version: 6.00 Build 0)  -->
<!DOCTYPE svg PUBLIC "-//W3C//DTD SVG 1.1//EN" "http://www.w3.org/Graphics/SVG/1.1/DTD/svg11.dtd">
<svg version="1.1" id="Capa_1" xmlns="http://www.w3.org/2000/svg" xmlns:xlink="http://www.w3.org/1999/xlink" x="0px" y="0px"
	 width="386.183px" height="386.183px" viewBox="0 0 386.183 386.183" style="enable-background:new 0 0 386.183 386.183;"
	 xml:space="preserve">
<g>
	<path d="M287.191,61.03H183.812v92.86c0,3.004-1.785,5.723-4.544,6.915c-0.961,0.415-1.979,0.618-2.987,0.618
		c-1.882,0-3.738-0.706-5.164-2.047L147.652,137.3l-23.464,22.076c-2.188,2.059-5.392,2.621-8.15,1.429
		c-2.76-1.192-4.544-3.911-4.544-6.915V61.03H92.238c-6.549,0-11.878-5.332-11.878-11.881c0-6.551,5.329-11.881,11.878-11.881
		h212.619c10.273,0,18.635-8.359,18.635-18.635S315.131,0,304.857,0H92.237c-27.1,0-49.146,22.049-49.146,49.148v281.135
		c0,30.823,25.077,55.899,55.9,55.899h188.2c30.823,0,55.9-25.076,55.9-55.899V116.928C343.091,86.108,318.014,61.03,287.191,61.03z
		"/>
</g>
<g>
</g>
<g>
</g>
<g>
</g>
<g>
</g>
<g>
</g>
<g>
</g>
<g>
</g>
<g>
</g>
<g>
</g>
<g>
</g>
<g>
</g>
<g>
</g>
<g>
</g>
<g>
</g>
<g>
</g>
</svg>
