<svg xmlns="http://www.w3.org/2000/svg" width="57.254" height="57.253" viewBox="0 0 57.254 57.253"><defs><style>.a{fill:#B6A103;}</style></defs><rect class="a" width="1.908" height="11.803" transform="matrix(0.243, -0.97, 0.97, 0.243, 22.67, 40.049)"/><rect class="a" width="1.908" height="11.803" transform="matrix(0.243, -0.97, 0.97, 0.243, 22.67, 36.232)"/><rect class="a" width="1.908" height="2.951" transform="matrix(0.243, -0.97, 0.97, 0.243, 31.258, 34.562)"/><rect class="a" width="1.908" height="6.885" transform="matrix(0.243, -0.97, 0.97, 0.243, 22.67, 32.415)"/><rect class="a" width="1.908" height="11.803" transform="matrix(0.243, -0.97, 0.97, 0.243, 22.67, 28.598)"/><path class="a" d="M250.863,77.725A2.863,2.863,0,1,0,248,74.863,2.863,2.863,0,0,0,250.863,77.725Zm0-3.817a.954.954,0,1,1-.954.954A.954.954,0,0,1,250.863,73.908Z" transform="translate(-220.327 -65.32)"/><rect class="a" width="9.053" height="1.908" transform="matrix(0.949, -0.316, 0.316, 0.949, 39.776, 29.63)"/><rect class="a" width="9.053" height="1.908" transform="matrix(0.949, -0.316, 0.316, 0.949, 8.286, 29.63)"/><path class="a" d="M71.207,44.85l-1.226,1.462a3.807,3.807,0,0,1,1.364,2.924V71.345H63.711V69.437a.954.954,0,0,0-.16-.529l-.074-.111a7.3,7.3,0,0,1,.909-9.181.954.954,0,0,0,.089-1.247l-4.294-5.725a1.431,1.431,0,1,1,2.29-1.718l4.294,5.725a.954.954,0,0,0,1.718-.573V16.955a.954.954,0,0,0-1.256-.905L53.189,20.728l-16.9-4.693a.954.954,0,0,0-.557.015h0L21.424,20.82a.954.954,0,0,0-.653.905V56.078a.954.954,0,0,0,1.718.573l4.294-5.725a1.431,1.431,0,1,1,2.29,1.718l-4.294,5.725a.954.954,0,0,0,.089,1.247,7.3,7.3,0,0,1,.909,9.181l-.074.111a.954.954,0,0,0-.16.529v1.908H17.908V49.237a3.807,3.807,0,0,1,1.364-2.924L18.046,44.85A5.711,5.711,0,0,0,16,49.237V72.3a.954.954,0,0,0,.954.954H26.5a.954.954,0,0,0,.954-.954V69.723a9.214,9.214,0,0,0-.672-10.842l.62-.826,6.079-2.027-.6-1.81-3.464,1.155L30.6,53.788a3.331,3.331,0,0,0,.427-.759l2.451-.817-.6-1.811-1.709.57a3.327,3.327,0,0,0-.849-1.522l3.162-1.054-.6-1.81-8.588,2.863.375,1.125L22.68,53.215V43.5l.863-.173a10.061,10.061,0,0,0,5.737-3.414,8.1,8.1,0,0,1,5.8-2.91v22.2L30.012,60.9l.6,1.811,5.449-1.817,16.9,4.693a.949.949,0,0,0,.565-.017h0l5.209-1.789-.62-1.8-3.944,1.355V43.5l.863-.173a10.061,10.061,0,0,0,5.737-3.414,8.1,8.1,0,0,1,5.8-2.91v16.21L64,49.78A3.34,3.34,0,0,0,63.167,49l1.8-.6-.6-1.81-8.588,2.863.6,1.81,1.8-.6a3.361,3.361,0,0,0-.119,1.845l-2.289.763.6,1.811,2.592-.864,1.083,1.443-4.278,1.426.6,1.81,4.882-1.628,1.213,1.618A9.214,9.214,0,0,0,61.8,69.723V72.3a.954.954,0,0,0,.954.954H72.3a.954.954,0,0,0,.954-.954V49.237a5.711,5.711,0,0,0-2.046-4.387ZM66.574,27.056,65.34,25.822a.954.954,0,0,0-1.528.248l-2.436,4.872L58.413,29.46a.954.954,0,0,0-1.16.242l-3.084,3.7V22.413l12.4-4.135ZM36.993,29.949l4.469-2.234,1.758,2.461-2.982,2.237,1.145,1.527,2.946-2.21,1.43,2a.954.954,0,0,0,1.451.12l2.04-2.04,3.011,4.516v4.087l-.174-.174a8.409,8.409,0,0,0-7.946-2.2,6.5,6.5,0,0,1-5.6-1.222L36.993,35.58Zm15.268-7.5V32.888l-2.069-3.1a.954.954,0,0,0-1.469-.145l-2.066,2.066-4.116-5.763a.954.954,0,0,0-1.2-.3l-4.344,2.172V18.21ZM35.084,18.279v9.172l-2.29-1.718a.954.954,0,0,0-1.336.191l-2.29,3.054-3.054-2.29a.954.954,0,0,0-1.366.234l-2.069,3.1V22.413ZM27.814,38.693a8.146,8.146,0,0,1-4.645,2.764l-.489.1V33.465l3.1-4.646,3.01,2.257a.954.954,0,0,0,1.336-.191l2.29-3.054,2.672,2v5.258A10,10,0,0,0,27.814,38.693Zm9.179,20.476V38.024l.354.283A8.416,8.416,0,0,0,44.6,39.892a6.491,6.491,0,0,1,6.134,1.7l1.524,1.523v20.3ZM60.651,37.355l-1.991-1.991a.954.954,0,0,0-1.469.145l-1.908,2.863,1.588,1.059,1.263-1.894L59.3,38.7a8.145,8.145,0,0,1-4.639,2.757l-.489.1v-5.17l4.066-4.879,3.141,1.57a.954.954,0,0,0,1.28-.427l2.271-4.541,1.647,1.647v5.34a9.993,9.993,0,0,0-5.923,2.26Z" transform="translate(-16 -16)"/><path class="a" d="M83.252,144.424l-1.908,2.863,1.588,1.059,1.379-2.069,2.069,1.379,1.059-1.588-2.863-1.908A.954.954,0,0,0,83.252,144.424Z" transform="translate(-73.55 -128.732)"/><path class="a" d="M21.82,18.045l.093-.018-.374-1.871-.093.019A6.792,6.792,0,0,0,16,22.816h1.908a4.878,4.878,0,0,1,3.911-4.771Z" transform="translate(-16 -16.137)"/></svg>