<svg width="19.156" height="18.844" viewBox="0 0 19.156 18.844">
                                                                <path d="M339.326,32.242a0.4,0.4,0,0,0,.09-0.523l-3.259-5.192a0.41,0.41,0,0,0-.472-0.171l-1.541.489,3.949,6.38Zm3.748,7.1c-0.158.415-.246,0.553-0.452,0.553-0.335,0-1.218-.317-3.378-2.442-2.391-2.352-2.527-3.162-2.475-3.4a0.778,0.778,0,0,1,.555-0.367l0.081-.03-4.024-6.5a4.975,4.975,0,0,0-1.81,2.625c-0.321.973-.911,4.593,4.947,10.355,4.249,4.179,7.337,5.056,9.179,5.056A4.455,4.455,0,0,0,347.045,45a5.065,5.065,0,0,0,2.669-1.781l-6.609-3.958C343.1,39.289,343.085,39.316,343.074,39.343Zm7.279,1.147-5.279-3.205a0.411,0.411,0,0,0-.531.089l-1,1.213,6.486,3.884,0.5-1.517A0.4,0.4,0,0,0,350.353,40.489Z" transform="translate(-331.375 -26.344)"></path>
                                                            </svg>